<svg width="29" height="28" viewBox="0 0 29 28" fill="none" xmlns="http://www.w3.org/2000/svg">
<path d="M13.541 24.25C12.0098 24.25 10.5818 23.9826 9.25716 23.4479C7.93251 22.9132 6.75977 22.184 5.73893 21.2604C5.44727 20.993 5.31359 20.671 5.33789 20.2942C5.3622 19.9175 5.53234 19.5954 5.84831 19.3281C6.16428 19.0607 6.52886 18.9331 6.94206 18.9453C7.35525 18.9574 7.71984 19.0972 8.03581 19.3645C8.81359 19.9965 9.6582 20.4826 10.5697 20.8229C11.4811 21.1632 12.4716 21.3333 13.541 21.3333C15.9716 21.3333 18.0375 20.4826 19.7389 18.7812C21.4403 17.0798 22.291 15.0138 22.291 12.5833C22.291 10.1527 21.4403 8.08677 19.7389 6.38538C18.0375 4.68399 15.9716 3.83329 13.541 3.83329C11.5237 3.83329 9.74327 4.44093 8.19987 5.65621C6.65647 6.87149 5.62956 8.41489 5.11914 10.2864C4.99761 10.6996 4.77886 11.0642 4.46289 11.3802C4.14692 11.6961 3.78234 11.8541 3.36914 11.8541C2.95595 11.8541 2.62174 11.6901 2.36654 11.3619C2.11133 11.0338 2.03234 10.6632 2.12956 10.25C2.68859 7.57635 4.01931 5.35239 6.12175 3.57808C8.22418 1.80378 10.6973 0.916626 13.541 0.916626C16.798 0.916626 19.5566 2.04683 21.8171 4.30725C24.0775 6.56767 25.2077 9.32635 25.2077 12.5833C25.2077 13.9444 24.9889 15.2265 24.5514 16.4296C24.1139 17.6328 23.5063 18.7326 22.7285 19.7291L28.5619 25.5625C28.8292 25.8298 28.9629 26.1701 28.9629 26.5833C28.9629 26.9965 28.8292 27.3368 28.5619 27.6041C28.2945 27.8715 27.9542 28.0052 27.541 28.0052C27.1278 28.0052 26.7875 27.8715 26.5202 27.6041L20.6868 21.7708C19.6903 22.5486 18.5905 23.1562 17.3874 23.5937C16.1842 24.0312 14.9021 24.25 13.541 24.25ZM13.0671 14.552L14.416 10.3593C14.4889 10.1649 14.6044 10.0008 14.7624 9.86715C14.9204 9.73347 15.1087 9.66663 15.3275 9.66663H16.2025C16.3969 9.66663 16.5671 9.71524 16.7129 9.81246C16.8587 9.90968 16.9803 10.0434 17.0775 10.2135L19.0098 14.0416C19.3257 14.0416 19.587 14.1449 19.7936 14.3515C20.0002 14.5581 20.1035 14.8194 20.1035 15.1354C20.1035 15.4513 20.0002 15.7126 19.7936 15.9192C19.587 16.1258 19.3257 16.2291 19.0098 16.2291H18.3535C18.1591 16.2291 17.9707 16.1744 17.7884 16.0651C17.6061 15.9557 17.4664 15.8038 17.3691 15.6093L15.9473 12.802L14.3431 17.7239C14.2702 17.9427 14.1487 18.1128 13.9785 18.2343C13.8084 18.3559 13.6139 18.4166 13.3952 18.4166H12.7389C12.5202 18.4166 12.3197 18.3498 12.1374 18.2161C11.9551 18.0824 11.8275 17.9062 11.7546 17.6875L9.67643 10.8333L8.03581 15.5C7.96289 15.7187 7.83529 15.8949 7.653 16.0286C7.4707 16.1623 7.25803 16.2291 7.01497 16.2291H1.50977C1.19379 16.2291 0.932509 16.1258 0.725911 15.9192C0.519314 15.7126 0.416016 15.4513 0.416016 15.1354C0.416016 14.8194 0.519314 14.5581 0.725911 14.3515C0.932509 14.1449 1.19379 14.0416 1.50977 14.0416H6.24935L8.40039 7.80725C8.47331 7.5885 8.60091 7.41836 8.7832 7.29683C8.9655 7.17531 9.16602 7.11454 9.38477 7.11454H10.0775C10.3205 7.11454 10.5271 7.18746 10.6973 7.33329C10.8674 7.47913 10.9889 7.66142 11.0618 7.88017L13.0671 14.552Z" fill="#4399EB"/>
</svg>
