<svg width="24" height="24" viewBox="0 0 24 24" fill="none" xmlns="http://www.w3.org/2000/svg">
<mask id="mask0_4471_4952" style="mask-type:alpha" maskUnits="userSpaceOnUse" x="0" y="0" width="24" height="24">
<rect width="24" height="24" fill="#D9D9D9"/>
</mask>
<g mask="url(#mask0_4471_4952)">
<path d="M13.0004 12.5999V8.9999C13.0004 8.71657 12.9046 8.47907 12.7129 8.2874C12.5212 8.09574 12.2837 7.9999 12.0004 7.9999C11.7171 7.9999 11.4796 8.09574 11.2879 8.2874C11.0962 8.47907 11.0004 8.71657 11.0004 8.9999V12.9749C11.0004 13.1082 11.0254 13.2374 11.0754 13.3624C11.1254 13.4874 11.2004 13.5999 11.3004 13.6999L14.1004 16.4999C14.2837 16.6832 14.5171 16.7749 14.8004 16.7749C15.0837 16.7749 15.3171 16.6832 15.5004 16.4999C15.6837 16.3166 15.7754 16.0832 15.7754 15.7999C15.7754 15.5166 15.6837 15.2832 15.5004 15.0999L13.0004 12.5999ZM12.0004 21.9999C10.7504 21.9999 9.57956 21.7624 8.48789 21.2874C7.39622 20.8124 6.44622 20.1707 5.63789 19.3624C4.82956 18.5541 4.18789 17.6041 3.71289 16.5124C3.23789 15.4207 3.00039 14.2499 3.00039 12.9999C3.00039 11.7499 3.23789 10.5791 3.71289 9.4874C4.18789 8.39574 4.82956 7.44574 5.63789 6.6374C6.44622 5.82907 7.39622 5.1874 8.48789 4.7124C9.57956 4.2374 10.7504 3.9999 12.0004 3.9999C13.2504 3.9999 14.4212 4.2374 15.5129 4.7124C16.6046 5.1874 17.5546 5.82907 18.3629 6.6374C19.1712 7.44574 19.8129 8.39574 20.2879 9.4874C20.7629 10.5791 21.0004 11.7499 21.0004 12.9999C21.0004 14.2499 20.7629 15.4207 20.2879 16.5124C19.8129 17.6041 19.1712 18.5541 18.3629 19.3624C17.5546 20.1707 16.6046 20.8124 15.5129 21.2874C14.4212 21.7624 13.2504 21.9999 12.0004 21.9999ZM2.05039 7.2999C1.86706 7.11657 1.77539 6.88324 1.77539 6.5999C1.77539 6.31657 1.86706 6.08324 2.05039 5.8999L4.90039 3.0499C5.08372 2.86657 5.31706 2.7749 5.60039 2.7749C5.88372 2.7749 6.11706 2.86657 6.30039 3.0499C6.48372 3.23324 6.57539 3.46657 6.57539 3.7499C6.57539 4.03324 6.48372 4.26657 6.30039 4.4499L3.45039 7.2999C3.26706 7.48324 3.03372 7.5749 2.75039 7.5749C2.46706 7.5749 2.23372 7.48324 2.05039 7.2999ZM21.9504 7.2999C21.7671 7.48324 21.5337 7.5749 21.2504 7.5749C20.9671 7.5749 20.7337 7.48324 20.5504 7.2999L17.7004 4.4499C17.5171 4.26657 17.4254 4.03324 17.4254 3.7499C17.4254 3.46657 17.5171 3.23324 17.7004 3.0499C17.8837 2.86657 18.1171 2.7749 18.4004 2.7749C18.6837 2.7749 18.9171 2.86657 19.1004 3.0499L21.9504 5.8999C22.1337 6.08324 22.2254 6.31657 22.2254 6.5999C22.2254 6.88324 22.1337 7.11657 21.9504 7.2999ZM12.0004 19.9999C13.9504 19.9999 15.6046 19.3207 16.9629 17.9624C18.3212 16.6041 19.0004 14.9499 19.0004 12.9999C19.0004 11.0499 18.3212 9.39574 16.9629 8.0374C15.6046 6.67907 13.9504 5.9999 12.0004 5.9999C10.0504 5.9999 8.39622 6.67907 7.03789 8.0374C5.67956 9.39574 5.00039 11.0499 5.00039 12.9999C5.00039 14.9499 5.67956 16.6041 7.03789 17.9624C8.39622 19.3207 10.0504 19.9999 12.0004 19.9999Z" fill="#4399EB"/>
</g>
</svg>
