<svg width="24" height="24" viewBox="0 0 24 24" fill="none" xmlns="http://www.w3.org/2000/svg">
<mask id="mask0_4471_18625" style="mask-type:alpha" maskUnits="userSpaceOnUse" x="0" y="0" width="24" height="24">
<rect width="24" height="24" fill="#D9D9D9"/>
</mask>
<g mask="url(#mask0_4471_18625)">
<path d="M11 11.15V8C11 7.71667 11.0958 7.47917 11.2875 7.2875C11.4792 7.09583 11.7167 7 12 7C12.2833 7 12.5208 7.09583 12.7125 7.2875C12.9042 7.47917 13 7.71667 13 8V11.15L13.9 10.275C14.0833 10.0917 14.3125 10 14.5875 10C14.8625 10 15.1 10.1 15.3 10.3C15.4833 10.4833 15.575 10.7167 15.575 11C15.575 11.2833 15.4833 11.5167 15.3 11.7L12.7 14.3C12.5 14.5 12.2667 14.6 12 14.6C11.7333 14.6 11.5 14.5 11.3 14.3L8.7 11.7C8.51667 11.5167 8.42083 11.2875 8.4125 11.0125C8.40417 10.7375 8.5 10.5 8.7 10.3C8.88333 10.1167 9.1125 10.0208 9.3875 10.0125C9.6625 10.0042 9.9 10.0917 10.1 10.275L11 11.15ZM7 23C6.45 23 5.97917 22.8042 5.5875 22.4125C5.19583 22.0208 5 21.55 5 21V3C5 2.45 5.19583 1.97917 5.5875 1.5875C5.97917 1.19583 6.45 1 7 1H17C17.55 1 18.0208 1.19583 18.4125 1.5875C18.8042 1.97917 19 2.45 19 3V21C19 21.55 18.8042 22.0208 18.4125 22.4125C18.0208 22.8042 17.55 23 17 23H7ZM7 18V21H17V18H7ZM7 16H17V6H7V16ZM7 4H17V3H7V4ZM10.5 20H13.5C13.6333 20 13.75 19.95 13.85 19.85C13.95 19.75 14 19.6333 14 19.5C14 19.3667 13.95 19.25 13.85 19.15C13.75 19.05 13.6333 19 13.5 19H10.5C10.3667 19 10.25 19.05 10.15 19.15C10.05 19.25 10 19.3667 10 19.5C10 19.6333 10.05 19.75 10.15 19.85C10.25 19.95 10.3667 20 10.5 20Z" fill="#4399EB"/>
</g>
</svg>
