<svg width="147" height="45" viewBox="0 0 147 45" fill="none" xmlns="http://www.w3.org/2000/svg">
<path d="M145.902 39.13C145.902 41.4871 144.034 43.3964 141.723 43.3964H4.99787C2.68876 43.3964 0.814453 41.4871 0.814453 39.13V5.10657C0.814453 2.75056 2.68876 0.834564 4.99787 0.834564H141.722C144.034 0.834564 145.901 2.75056 145.901 5.10657L145.902 39.13Z" fill="black"/>
<path d="M141.283 0.885999C143.799 0.885999 145.847 2.969 145.847 5.52886V38.7021C145.847 41.2619 143.799 43.3449 141.283 43.3449H5.43397C2.91804 43.3449 0.870792 41.2619 0.870792 38.7021V5.52886C0.870792 2.969 2.91804 0.885999 5.43397 0.885999H141.283ZM141.283 0H5.43397C2.44664 0 0 2.48937 0 5.52886V38.7021C0 41.7416 2.44664 44.2309 5.43397 44.2309H141.283C144.27 44.2309 146.717 41.7416 146.717 38.7021V5.52886C146.717 2.48937 144.27 0 141.283 0Z" fill="#A6A6A6"/>
<path d="M32.7431 21.8766C32.7116 18.3127 35.6111 16.5788 35.7438 16.4981C34.1016 14.0621 31.5563 13.7292 30.6619 13.7027C28.5242 13.4738 26.4506 15.0042 25.3616 15.0042C24.2509 15.0042 22.574 13.7248 20.7667 13.7624C18.4409 13.7989 16.2651 15.169 15.0718 17.2965C12.6092 21.6344 14.4459 28.0092 16.8053 31.5156C17.9855 33.2329 19.3647 35.1503 21.1699 35.0828C22.9359 35.0087 23.5955 33.9373 25.7268 33.9373C27.8384 33.9373 28.4579 35.0828 30.2989 35.0397C32.1943 35.0087 33.3876 33.3147 34.5265 31.582C35.8904 29.6137 36.4382 27.6753 36.46 27.5757C36.4154 27.5603 32.7789 26.1482 32.7431 21.8766Z" fill="white"/>
<path d="M29.2646 11.396C30.2145 10.1873 30.8644 8.54311 30.684 6.8745C29.3091 6.93642 27.5899 7.84205 26.5998 9.02412C25.7238 10.0657 24.9414 11.773 25.1435 13.3786C26.6878 13.4958 28.2734 12.5858 29.2646 11.396Z" fill="white"/>
<path d="M53.3073 11.0677C53.3073 12.3692 52.9236 13.3489 52.1574 14.0068C51.4477 14.6139 50.4392 14.918 49.1329 14.918C48.4852 14.918 47.9309 14.8892 47.4668 14.8317V7.72053C48.0722 7.62101 48.7242 7.57014 49.4285 7.57014C50.6729 7.57014 51.6108 7.84548 52.2433 8.39616C52.9518 9.01871 53.3073 9.90883 53.3073 11.0677ZM52.1064 11.0997C52.1064 10.256 51.8868 9.60916 51.4477 9.15804C51.0087 8.70799 50.3675 8.48241 49.523 8.48241C49.1644 8.48241 48.859 8.50673 48.6058 8.5576V13.9637C48.7459 13.9858 49.0025 13.9958 49.3753 13.9958C50.2468 13.9958 50.9196 13.7492 51.3934 13.256C51.8672 12.7628 52.1064 12.0441 52.1064 11.0997Z" fill="white"/>
<path d="M59.674 12.2044C59.674 13.0061 59.449 13.6629 58.9991 14.1782C58.5274 14.7078 57.9026 14.9721 57.1223 14.9721C56.3702 14.9721 55.7713 14.7189 55.3247 14.2102C54.8791 13.7027 54.6562 13.0625 54.6562 12.2906C54.6562 11.4834 54.8856 10.821 55.3464 10.3069C55.8072 9.79268 56.4267 9.53503 57.207 9.53503C57.9591 9.53503 58.5633 9.78826 59.0208 10.2958C59.4555 10.789 59.674 11.4259 59.674 12.2044ZM58.4927 12.242C58.4927 11.761 58.3905 11.3485 58.1873 11.0046C57.9482 10.5888 57.608 10.381 57.1657 10.381C56.7081 10.381 56.3604 10.5888 56.1213 11.0046C55.9169 11.3485 55.8159 11.7676 55.8159 12.263C55.8159 12.744 55.9181 13.1564 56.1213 13.5003C56.368 13.9161 56.7114 14.124 57.1548 14.124C57.5896 14.124 57.9308 13.9128 58.1764 13.4893C58.3873 13.1387 58.4927 12.723 58.4927 12.242Z" fill="white"/>
<path d="M68.2119 9.64136L66.6089 14.854H65.5655L64.9015 12.5905C64.7331 12.0254 64.5961 11.4637 64.4896 10.9064H64.469C64.3701 11.4792 64.2331 12.0398 64.057 12.5905L63.3518 14.854H62.2965L60.7891 9.64136H61.9596L62.5389 12.1194C62.679 12.7055 62.7942 13.2639 62.8866 13.7924H62.9072C62.992 13.3568 63.1322 12.8017 63.33 12.1305L64.057 9.64246H64.9852L65.6818 12.0774C65.8503 12.6712 65.9872 13.2429 66.0927 13.7935H66.1242C66.2013 13.2572 66.3176 12.6856 66.4719 12.0774L67.0936 9.64246H68.2119V9.64136Z" fill="white"/>
<path d="M74.1175 14.8541H72.9786V11.8685C72.9786 10.9485 72.6351 10.4885 71.9461 10.4885C71.6082 10.4885 71.3354 10.6146 71.1235 10.8678C70.9137 11.121 70.8072 11.4196 70.8072 11.7613V14.853H69.6682V11.131C69.6682 10.6732 69.6542 10.1767 69.627 9.63929H70.6279L70.6811 10.4542H70.7126C70.8453 10.201 71.043 9.99203 71.3027 9.82506C71.6114 9.63044 71.957 9.53203 72.3353 9.53203C72.8134 9.53203 73.2112 9.68905 73.5274 10.0042C73.9208 10.3901 74.1175 10.9662 74.1175 11.7314V14.8541Z" fill="white"/>
<path d="M77.259 14.8539H76.1211V7.24947H77.259V14.8539Z" fill="white"/>
<path d="M83.9631 12.2044C83.9631 13.0061 83.7381 13.6629 83.2882 14.1782C82.8165 14.7078 82.1905 14.9721 81.4112 14.9721C80.6581 14.9721 80.0592 14.7189 79.6137 14.2102C79.1681 13.7027 78.9453 13.0625 78.9453 12.2906C78.9453 11.4834 79.1746 10.821 79.6354 10.3069C80.0962 9.79268 80.7157 9.53503 81.4949 9.53503C82.2481 9.53503 82.8513 9.78826 83.3099 10.2958C83.7446 10.789 83.9631 11.4259 83.9631 12.2044ZM82.7806 12.242C82.7806 11.761 82.6785 11.3485 82.4752 11.0046C82.2372 10.5888 81.8959 10.381 81.4547 10.381C80.9961 10.381 80.6483 10.5888 80.4103 11.0046C80.206 11.3485 80.1049 11.7676 80.1049 12.263C80.1049 12.744 80.2071 13.1564 80.4103 13.5003C80.657 13.9161 81.0005 14.124 81.4438 14.124C81.8785 14.124 82.2188 13.9128 82.4643 13.4893C82.6763 13.1387 82.7806 12.723 82.7806 12.242Z" fill="white"/>
<path d="M89.4752 14.8538H88.4526L88.3679 14.2534H88.3361C87.9865 14.7322 87.4877 14.9721 86.8399 14.9721C86.3563 14.9721 85.9651 14.814 85.6705 14.5C85.4032 14.2147 85.2695 13.8597 85.2695 13.4384C85.2695 12.8015 85.5303 12.3161 86.0552 11.9799C86.5791 11.6437 87.3159 11.479 88.2647 11.4867V11.3894C88.2647 10.7027 87.9104 10.3599 87.2007 10.3599C86.6953 10.3599 86.2498 10.4893 85.865 10.7459L85.6336 9.98508C86.1095 9.68542 86.6975 9.53503 87.3909 9.53503C88.7299 9.53503 89.4019 10.2538 89.4019 11.6913V13.6109C89.4019 14.1317 89.4266 14.5464 89.4752 14.8538ZM88.293 13.0625V12.2586C87.0366 12.2364 86.4085 12.587 86.4085 13.309C86.4085 13.5811 86.4802 13.7845 86.6269 13.9205C86.7736 14.0565 86.9605 14.124 87.1833 14.124C87.4333 14.124 87.6669 14.0433 87.88 13.8829C88.094 13.7215 88.2255 13.5169 88.2744 13.2659C88.2865 13.2095 88.293 13.141 88.293 13.0625Z" fill="white"/>
<path d="M95.9477 14.8539H94.9366L94.8836 14.0168H94.8519C94.5287 14.6537 93.9794 14.9722 93.2068 14.9722C92.5887 14.9722 92.0748 14.7256 91.6677 14.2324C91.2597 13.7393 91.0566 13.099 91.0566 12.3128C91.0566 11.4691 91.2774 10.7857 91.7207 10.2638C92.1498 9.77727 92.6761 9.534 93.3022 9.534C93.99 9.534 94.4713 9.76953 94.745 10.2417H94.7671V7.24947H95.9071V13.4495C95.9071 13.9571 95.9203 14.4248 95.9477 14.8539ZM94.7671 12.6556V11.7865C94.7671 11.6361 94.7565 11.5144 94.7353 11.4216C94.6717 11.1429 94.5331 10.9085 94.3238 10.7194C94.1119 10.5303 93.8567 10.4352 93.5618 10.4352C93.137 10.4352 92.8041 10.6066 92.5595 10.9505C92.3176 11.2944 92.1948 11.7334 92.1948 12.2697C92.1948 12.785 92.3105 13.203 92.5445 13.5247C92.7909 13.8675 93.1238 14.0389 93.5397 14.0389C93.9141 14.0389 94.2125 13.8963 94.4395 13.6099C94.6594 13.3456 94.7671 13.0271 94.7671 12.6556Z" fill="white"/>
<path d="M105.689 12.2044C105.689 13.0061 105.464 13.6629 105.015 14.1782C104.543 14.7078 103.919 14.9721 103.137 14.9721C102.387 14.9721 101.788 14.7189 101.339 14.2102C100.894 13.7027 100.672 13.0625 100.672 12.2906C100.672 11.4834 100.901 10.821 101.362 10.3069C101.822 9.79268 102.441 9.53503 103.223 9.53503C103.974 9.53503 104.579 9.78826 105.036 10.2958C105.471 10.789 105.689 11.4259 105.689 12.2044ZM104.509 12.242C104.509 11.761 104.407 11.3485 104.204 11.0046C103.964 10.5888 103.625 10.381 103.181 10.381C102.724 10.381 102.377 10.5888 102.137 11.0046C101.932 11.3485 101.831 11.7676 101.831 12.263C101.831 12.744 101.933 13.1564 102.137 13.5003C102.383 13.9161 102.727 14.124 103.17 14.124C103.604 14.124 103.947 13.9128 104.192 13.4893C104.403 13.1387 104.509 12.723 104.509 12.242Z" fill="white"/>
<path d="M111.812 14.8541H110.674V11.8685C110.674 10.9485 110.331 10.4885 109.64 10.4885C109.302 10.4885 109.03 10.6146 108.819 10.8678C108.608 11.121 108.503 11.4196 108.503 11.7613V14.853H107.363V11.131C107.363 10.6732 107.35 10.1767 107.322 9.63929H108.322L108.376 10.4542H108.407C108.541 10.201 108.739 9.99203 108.997 9.82506C109.306 9.63044 109.652 9.53203 110.03 9.53203C110.507 9.53203 110.906 9.68905 111.222 10.0042C111.616 10.3901 111.812 10.9662 111.812 11.7314V14.8541Z" fill="white"/>
<path d="M119.478 10.5093H118.224V13.0415C118.224 13.6851 118.447 14.0069 118.888 14.0069C119.092 14.0069 119.262 13.9892 119.395 13.9527L119.425 14.8318C119.2 14.918 118.904 14.9611 118.54 14.9611C118.09 14.9611 117.74 14.8218 117.487 14.5432C117.232 14.2645 117.106 13.7956 117.106 13.1377V10.5093H116.357V9.64126H117.106V8.68587L118.222 8.34308V9.64015H119.477V10.5093H119.478Z" fill="white"/>
<path d="M125.506 14.8539H124.366V11.8904C124.366 10.956 124.023 10.4883 123.335 10.4883C122.807 10.4883 122.446 10.7592 122.248 11.301C122.214 11.4149 122.195 11.5543 122.195 11.7179V14.8528H121.057V7.24947H122.195V10.391H122.217C122.575 9.81929 123.089 9.534 123.755 9.534C124.228 9.534 124.617 9.69102 124.927 10.0062C125.313 10.3987 125.506 10.9826 125.506 11.7544V14.8539Z" fill="white"/>
<path d="M131.726 12.0011C131.726 12.209 131.711 12.3837 131.684 12.5263H128.269C128.284 13.0416 128.446 13.4341 128.763 13.7062C129.052 13.9494 129.424 14.0711 129.881 14.0711C130.386 14.0711 130.847 13.9892 131.262 13.8245L131.44 14.6295C130.955 14.844 130.383 14.9513 129.721 14.9513C128.928 14.9513 128.303 14.7135 127.851 14.238C127.397 13.7626 127.172 13.1245 127.172 12.324C127.172 11.5377 127.381 10.8831 127.804 10.3612C128.246 9.80389 128.842 9.52524 129.595 9.52524C130.332 9.52524 130.892 9.80389 131.27 10.3612C131.575 10.8035 131.726 11.3509 131.726 12.0011ZM130.639 11.7014C130.648 11.3575 130.573 11.0612 130.419 10.8113C130.221 10.4895 129.92 10.328 129.513 10.328C129.141 10.328 128.838 10.485 128.606 10.8002C128.417 11.0512 128.305 11.3509 128.269 11.7014H130.639Z" fill="white"/>
<path d="M58.3019 34.8358H55.8338L54.4819 30.5133H49.7826L48.4947 34.8358H46.0918L50.7476 20.1202H53.6232L58.3019 34.8358ZM54.0743 28.6999L52.8517 24.8573C52.7223 24.4648 52.48 23.5403 52.1225 22.0851H52.0789C51.9366 22.711 51.7073 23.6354 51.3921 24.8573L50.1912 28.6999H54.0743Z" fill="white"/>
<path d="M70.2736 29.4001C70.2736 31.2047 69.7943 32.6312 68.8358 33.6783C67.9772 34.6105 66.911 35.076 65.6384 35.076C64.2647 35.076 63.2779 34.574 62.6769 33.57H62.6334V39.1597H60.3164V27.7182C60.3164 26.5837 60.287 25.4193 60.2305 24.2251H62.2682L62.3976 25.907H62.441C63.2137 24.6398 64.3864 24.0072 65.9601 24.0072C67.1903 24.0072 68.2174 24.5015 69.0389 25.4912C69.8628 26.482 70.2736 27.7846 70.2736 29.4001ZM67.9131 29.4864C67.9131 28.4536 67.6848 27.6021 67.2262 26.932C66.7252 26.2332 66.0525 25.8837 65.2091 25.8837C64.6374 25.8837 64.118 26.0784 63.6539 26.4621C63.1888 26.8491 62.8845 27.3544 62.7421 27.9803C62.6703 28.2722 62.6345 28.5111 62.6345 28.699V30.4683C62.6345 31.2401 62.8671 31.8914 63.3322 32.4233C63.7973 32.9552 64.4016 33.2206 65.145 33.2206C66.0177 33.2206 66.6969 32.8778 67.1827 32.1944C67.6696 31.5099 67.9131 30.6076 67.9131 29.4864Z" fill="white"/>
<path d="M82.2685 29.4001C82.2685 31.2047 81.7892 32.6312 80.8296 33.6783C79.9721 34.6105 78.906 35.076 77.6334 35.076C76.2597 35.076 75.2728 34.574 74.673 33.57H74.6294V39.1597H72.3124V27.7182C72.3124 26.5837 72.2831 25.4193 72.2266 24.2251H74.2643L74.3937 25.907H74.4371C75.2087 24.6398 76.3813 24.0072 77.9561 24.0072C79.1853 24.0072 80.2123 24.5015 81.0361 25.4912C81.8566 26.482 82.2685 27.7846 82.2685 29.4001ZM79.908 29.4864C79.908 28.4536 79.6787 27.6021 79.2201 26.932C78.7191 26.2332 78.0485 25.8837 77.2041 25.8837C76.6313 25.8837 76.1129 26.0784 75.6478 26.4621C75.1827 26.8491 74.8794 27.3544 74.7371 27.9803C74.6664 28.2722 74.6294 28.5111 74.6294 28.699V30.4683C74.6294 31.2401 74.862 31.8914 75.325 32.4233C75.7902 32.9541 76.3944 33.2206 77.1399 33.2206C78.0126 33.2206 78.6919 32.8778 79.1777 32.1944C79.6646 31.5099 79.908 30.6076 79.908 29.4864Z" fill="white"/>
<path d="M95.6797 30.7094C95.6797 31.9611 95.2524 32.9795 94.395 33.7657C93.4528 34.6249 92.1406 35.0539 90.4558 35.0539C88.899 35.0539 87.6514 34.7487 86.707 34.1373L87.2439 32.1723C88.2611 32.7982 89.3776 33.1122 90.5936 33.1122C91.466 33.1122 92.145 32.911 92.6333 32.5107C93.119 32.1104 93.3618 31.573 93.3618 30.9029C93.3618 30.3058 93.1614 29.8026 92.7605 29.3946C92.3614 28.9866 91.6956 28.6073 90.7649 28.2568C88.2329 27.2958 86.9679 25.8882 86.9679 24.0371C86.9679 22.8274 87.4112 21.8355 88.2992 21.0637C89.1843 20.2908 90.364 19.9048 91.8404 19.9048C93.1561 19.9048 94.2493 20.1382 95.1217 20.6037L94.5424 22.5255C93.7274 22.0744 92.8064 21.8488 91.775 21.8488C90.96 21.8488 90.3225 22.0534 89.8659 22.4603C89.4809 22.8241 89.2867 23.2675 89.2867 23.7927C89.2867 24.3744 89.5074 24.8554 89.9507 25.2336C90.3366 25.583 91.0377 25.9612 92.0549 26.3692C93.2991 26.879 94.2139 27.475 94.8011 28.1583C95.3875 28.8395 95.6797 29.692 95.6797 30.7094Z" fill="white"/>
<path d="M103.341 25.9945H100.787V31.1463C100.787 32.4566 101.238 33.1112 102.139 33.1112C102.553 33.1112 102.897 33.0747 103.169 33.0017L103.232 34.792C102.776 34.9656 102.175 35.053 101.431 35.053C100.515 35.053 99.8009 34.7688 99.2843 34.2015C98.7704 33.6331 98.5117 32.68 98.5117 31.3409V25.9922H96.9902V24.223H98.5117V22.2802L100.787 21.5813V24.223H103.341V25.9945Z" fill="white"/>
<path d="M114.863 29.4432C114.863 31.0743 114.405 32.4133 113.489 33.4605C112.53 34.5386 111.256 35.076 109.668 35.076C108.138 35.076 106.92 34.5597 106.012 33.5269C105.103 32.4941 104.648 31.1904 104.648 29.6191C104.648 27.9748 105.116 26.6279 106.054 25.5808C106.989 24.5325 108.252 24.0084 109.841 24.0084C111.37 24.0084 112.602 24.5248 113.531 25.5587C114.42 26.5616 114.863 27.8565 114.863 29.4432ZM112.46 29.5195C112.46 28.5409 112.254 27.7016 111.838 27.0017C111.352 26.1547 110.657 25.7323 109.758 25.7323C108.826 25.7323 108.119 26.1558 107.633 27.0017C107.216 27.7028 107.011 28.5553 107.011 29.5638C107.011 30.5424 107.216 31.3817 107.633 32.0805C108.134 32.9275 108.834 33.3499 109.737 33.3499C110.621 33.3499 111.316 32.9187 111.817 32.0584C112.244 31.3452 112.46 30.497 112.46 29.5195Z" fill="white"/>
<path d="M122.396 26.2984C122.167 26.2553 121.922 26.2332 121.665 26.2332C120.85 26.2332 120.22 26.5461 119.776 27.1731C119.39 27.726 119.197 28.4248 119.197 29.2685V34.8361H116.882L116.903 27.5667C116.903 26.3437 116.874 25.2302 116.816 24.2262H118.834L118.919 26.2564H118.983C119.228 25.5586 119.614 24.9969 120.142 24.5756C120.658 24.1963 121.216 24.0072 121.817 24.0072C122.031 24.0072 122.224 24.0227 122.396 24.0504V26.2984Z" fill="white"/>
<path d="M132.758 29.0285C132.758 29.4509 132.731 29.807 132.674 30.0978H125.723C125.75 31.1461 126.085 31.9478 126.731 32.5007C127.316 32.995 128.074 33.2426 129.005 33.2426C130.033 33.2426 130.973 33.0757 131.817 32.7406L132.18 34.3772C131.194 34.8151 130.028 35.0329 128.684 35.0329C127.066 35.0329 125.798 34.5486 124.874 33.581C123.952 32.6135 123.49 31.3142 123.49 29.6842C123.49 28.0841 123.919 26.7518 124.779 25.689C125.679 24.5545 126.895 23.9872 128.425 23.9872C129.928 23.9872 131.067 24.5545 131.839 25.689C132.451 26.5903 132.758 27.7049 132.758 29.0285ZM130.549 28.417C130.564 27.7181 130.413 27.1144 130.099 26.6046C129.698 25.9489 129.082 25.6216 128.252 25.6216C127.495 25.6216 126.878 25.9412 126.408 26.5826C126.023 27.0923 125.793 27.7037 125.723 28.4159H130.549V28.417Z" fill="white"/>
</svg>
