<svg width="27" height="27" viewBox="0 0 27 27" fill="none" xmlns="http://www.w3.org/2000/svg">
<path d="M3.29167 26.625C2.48958 26.625 1.80295 26.3394 1.23177 25.7682C0.66059 25.1971 0.375 24.5104 0.375 23.7083V3.29167C0.375 2.48958 0.66059 1.80295 1.23177 1.23177C1.80295 0.66059 2.48958 0.375 3.29167 0.375H23.7083C24.5104 0.375 25.1971 0.66059 25.7682 1.23177C26.3394 1.80295 26.625 2.48958 26.625 3.29167V23.7083C26.625 24.5104 26.3394 25.1971 25.7682 25.7682C25.1971 26.3394 24.5104 26.625 23.7083 26.625H3.29167ZM3.29167 20.7188V23.7083H23.7083V10.9479L16.0521 19.625C15.7847 19.941 15.4384 20.105 15.013 20.1172C14.5877 20.1293 14.2292 19.9896 13.9375 19.6979L9.125 14.8854L3.29167 20.7188ZM3.29167 16.5625L8.10417 11.75C8.39583 11.4583 8.73611 11.3125 9.125 11.3125C9.51389 11.3125 9.85417 11.4583 10.1458 11.75L14.8854 16.4896L23.7083 6.57292V3.29167H3.29167V16.5625ZM3.29167 10.9479V6.57292V16.4896V10.7292V20.7188V14.8854V20.7917V10.9479ZM3.29167 16.5625V3.29167V16.4896V10.7292V16.5625ZM3.29167 20.7188V14.8854V20.7917V10.9479V23.7083V20.7188Z" fill="#FFC145"/>
</svg>
