<svg width="21" height="26" viewBox="0 0 21 26" fill="none" xmlns="http://www.w3.org/2000/svg">
<path d="M10.4993 22.25L4.37435 24.875C3.40213 25.2882 2.47852 25.2092 1.60352 24.638C0.728516 24.0668 0.291016 23.2587 0.291016 22.2135V3.29167C0.291016 2.48958 0.576606 1.80295 1.14779 1.23177C1.71897 0.66059 2.4056 0.375 3.20768 0.375H17.791C18.5931 0.375 19.2797 0.66059 19.8509 1.23177C20.4221 1.80295 20.7077 2.48958 20.7077 3.29167V22.2135C20.7077 23.2587 20.2702 24.0668 19.3952 24.638C18.5202 25.2092 17.5966 25.2882 16.6243 24.875L10.4993 22.25ZM10.4993 19.0417L17.791 22.1771V3.29167H3.20768V22.1771L10.4993 19.0417Z" fill="#57DCFF"/>
</svg>
