<svg width="50" height="25" viewBox="0 0 50 25" fill="none" xmlns="http://www.w3.org/2000/svg">
<g clip-path="url(#clip0_1070_26724)">
<rect width="50" height="25" rx="12.5" fill="#151535"/>
<g filter="url(#filter0_f_1070_26724)">
<ellipse cx="20.8333" cy="12.5" rx="21.6667" ry="20.3125" fill="#1A1A44"/>
</g>
<g filter="url(#filter1_f_1070_26724)">
<ellipse cx="29.5833" cy="12.1094" rx="20.4167" ry="19.1406" fill="#222257"/>
</g>
<g filter="url(#filter2_f_1070_26724)">
<ellipse cx="39.5833" cy="12.5" rx="20.4167" ry="19.1406" fill="#2A2A72"/>
</g>
<path d="M19.8958 5.05166C19.8129 5.05867 19.7299 5.06218 19.6489 5.0727C19.5283 5.09023 19.4359 5.14985 19.3794 5.25154C19.3417 5.31991 19.3078 5.39004 19.2795 5.46368C19.2041 5.65479 19.1589 5.85466 19.1023 6.04928C19.0948 6.07558 19.0929 6.10538 19.0873 6.13168C19.0854 6.1422 19.0835 6.15447 19.0778 6.16324C19.0646 6.18954 19.0401 6.20357 19.0119 6.20006C18.9836 6.19655 18.961 6.17551 18.9591 6.14571C18.9572 6.12993 18.9572 6.1124 18.961 6.09486C18.9723 6.02824 18.9685 5.96337 18.961 5.8985C18.9459 5.77051 18.9252 5.64252 18.8818 5.51979C18.8272 5.37427 18.7442 5.24628 18.6142 5.14634C18.5482 5.09549 18.4804 5.0464 18.4125 4.99556C18.3089 4.91841 18.1901 4.86757 18.0676 4.82198C18.0488 4.81497 18.0262 4.81322 18.0036 4.8062C17.9885 4.8027 17.9715 4.79919 17.9564 4.79218C17.9244 4.77815 17.9112 4.74834 17.9188 4.71854C17.9263 4.69049 17.9546 4.67295 17.9885 4.67646C18.013 4.67821 18.0394 4.68347 18.0639 4.69049C18.2033 4.73081 18.3466 4.72205 18.4898 4.70977C18.5426 4.70627 18.5954 4.70101 18.6462 4.69049C18.765 4.66419 18.8573 4.60282 18.912 4.49938C18.9553 4.41873 18.9855 4.33457 19.0062 4.24515C19.0401 4.10664 19.0873 3.96989 19.1061 3.82787C19.1155 3.75599 19.1268 3.6841 19.1363 3.61047C19.14 3.59118 19.1419 3.57189 19.1476 3.55261C19.1589 3.53332 19.1758 3.51754 19.2003 3.51579C19.2248 3.51404 19.2475 3.52631 19.255 3.55086C19.2644 3.57715 19.272 3.60521 19.2738 3.63326C19.2833 3.763 19.2927 3.89274 19.3021 4.02424C19.3115 4.14346 19.3172 4.26269 19.3304 4.38016C19.3417 4.47659 19.3775 4.56776 19.4359 4.65016C19.4887 4.72555 19.5622 4.77289 19.6489 4.8062C19.7054 4.82724 19.7601 4.85003 19.8166 4.86757C19.8468 4.87809 19.8807 4.88159 19.9128 4.88861C19.9749 4.90263 20.039 4.91491 20.1012 4.93069C20.1295 4.9377 20.1483 4.95698 20.1502 4.98504C20.154 5.01134 20.137 5.03764 20.1069 5.04816C20.0861 5.05517 20.0635 5.06043 20.0409 5.06043C19.9919 5.06218 19.941 5.06043 19.892 5.06043C19.8958 5.05692 19.8958 5.05341 19.8958 5.05166Z" fill="#F1F1F1"/>
<path d="M22.3573 13.3594C22.311 13.3634 22.2646 13.3653 22.2192 13.3712C22.1517 13.381 22.1 13.4144 22.0684 13.4713C22.0473 13.5095 22.0283 13.5488 22.0125 13.59C21.9703 13.6969 21.945 13.8087 21.9134 13.9176C21.9092 13.9323 21.9081 13.949 21.905 13.9637C21.9039 13.9696 21.9029 13.9765 21.8997 13.9814C21.8923 13.9961 21.8786 14.004 21.8628 14.002C21.847 14 21.8343 13.9883 21.8333 13.9716C21.8322 13.9628 21.8322 13.9529 21.8343 13.9431C21.8406 13.9059 21.8385 13.8696 21.8343 13.8333C21.8259 13.7617 21.8143 13.69 21.79 13.6214C21.7594 13.5399 21.713 13.4683 21.6403 13.4124C21.6034 13.384 21.5654 13.3565 21.5274 13.3281C21.4694 13.2849 21.403 13.2564 21.3345 13.2309C21.3239 13.227 21.3113 13.226 21.2986 13.2221C21.2902 13.2201 21.2807 13.2182 21.2722 13.2143C21.2543 13.2064 21.2469 13.1897 21.2512 13.1731C21.2554 13.1574 21.2712 13.1475 21.2902 13.1495C21.3039 13.1505 21.3186 13.1534 21.3324 13.1574C21.4104 13.1799 21.4905 13.175 21.5707 13.1681C21.6002 13.1662 21.6297 13.1632 21.6582 13.1574C21.7246 13.1426 21.7763 13.1083 21.8069 13.0504C21.8311 13.0053 21.848 12.9582 21.8596 12.9082C21.8786 12.8307 21.905 12.7542 21.9155 12.6747C21.9208 12.6345 21.9271 12.5943 21.9324 12.5531C21.9345 12.5423 21.9355 12.5315 21.9387 12.5207C21.945 12.5099 21.9545 12.5011 21.9682 12.5001C21.9819 12.4991 21.9946 12.506 21.9988 12.5197C22.0041 12.5344 22.0083 12.5501 22.0094 12.5658C22.0146 12.6384 22.0199 12.711 22.0252 12.7846C22.0304 12.8513 22.0336 12.918 22.041 12.9837C22.0473 13.0377 22.0674 13.0887 22.1 13.1348C22.1296 13.177 22.1707 13.2035 22.2192 13.2221C22.2508 13.2339 22.2814 13.2466 22.3131 13.2564C22.3299 13.2623 22.3489 13.2643 22.3668 13.2682C22.4016 13.2761 22.4375 13.2829 22.4723 13.2918C22.4881 13.2957 22.4987 13.3065 22.4997 13.3222C22.5018 13.3369 22.4923 13.3516 22.4755 13.3575C22.4639 13.3614 22.4512 13.3643 22.4385 13.3643C22.4111 13.3653 22.3827 13.3643 22.3552 13.3643C22.3573 13.3624 22.3573 13.3604 22.3573 13.3594Z" fill="#F1F1F1"/>
<path d="M1.03096 6.59229C0.970308 6.59742 0.909651 6.59998 0.850373 6.60768C0.762145 6.6205 0.694596 6.6641 0.653239 6.73849C0.625668 6.7885 0.600854 6.8398 0.580176 6.89366C0.525033 7.03345 0.491948 7.17964 0.450591 7.32199C0.445077 7.34123 0.443698 7.36303 0.439563 7.38227C0.438184 7.38996 0.436805 7.39894 0.43267 7.40535C0.42302 7.42459 0.405099 7.43485 0.38442 7.43228C0.363742 7.42972 0.347199 7.41433 0.345821 7.39253C0.344442 7.38099 0.344442 7.36816 0.347199 7.35534C0.35547 7.30661 0.352713 7.25916 0.347199 7.2117C0.336171 7.11809 0.321006 7.02447 0.2893 6.9347C0.249321 6.82826 0.188665 6.73464 0.0935442 6.66154C0.0452946 6.62435 -0.00433356 6.58844 -0.0539617 6.55125C-0.129782 6.49482 -0.216632 6.45763 -0.306238 6.42429C-0.320024 6.41916 -0.336566 6.41788 -0.353109 6.41275C-0.364138 6.41018 -0.376545 6.40762 -0.387573 6.40249C-0.411009 6.39223 -0.420658 6.37043 -0.415144 6.34862C-0.40963 6.3281 -0.388952 6.31528 -0.364138 6.31785C-0.346216 6.31913 -0.326916 6.32297 -0.308995 6.3281C-0.206982 6.3576 -0.102211 6.35119 0.00255924 6.34221C0.0411589 6.33965 0.0797586 6.3358 0.11698 6.3281C0.203829 6.30887 0.271378 6.26398 0.311357 6.18832C0.343063 6.12933 0.36512 6.06777 0.380285 6.00237C0.405099 5.90105 0.439563 5.80102 0.453348 5.69714C0.460241 5.64456 0.468512 5.59198 0.475405 5.53812C0.478162 5.52402 0.479541 5.50991 0.483676 5.4958C0.491948 5.48169 0.504355 5.47015 0.522276 5.46887C0.540197 5.46759 0.55674 5.47657 0.562254 5.49452C0.569147 5.51376 0.574661 5.53427 0.57604 5.55479C0.582933 5.64969 0.589825 5.74459 0.596718 5.84078C0.603611 5.92798 0.607747 6.01519 0.617397 6.10111C0.625668 6.17165 0.651861 6.23833 0.694596 6.29861C0.733196 6.35375 0.786959 6.38838 0.850373 6.41275C0.89173 6.42813 0.931708 6.44481 0.973065 6.45763C0.995122 6.46533 1.01994 6.46789 1.04337 6.47302C1.08886 6.48328 1.13574 6.49226 1.18123 6.5038C1.20191 6.50893 1.21569 6.52304 1.21707 6.54355C1.21983 6.56279 1.20742 6.58203 1.18536 6.58972C1.1702 6.59485 1.15366 6.5987 1.13711 6.5987C1.10127 6.59998 1.06405 6.5987 1.02821 6.5987C1.03096 6.59613 1.03096 6.59357 1.03096 6.59229Z" fill="#F1F1F1"/>
<path d="M8.37176 4.19222C8.33523 4.19531 8.2987 4.19685 8.263 4.20149C8.20987 4.20921 8.1692 4.23547 8.14429 4.28026C8.12769 4.31038 8.11274 4.34127 8.10029 4.3737C8.06708 4.45788 8.04716 4.54592 8.02226 4.63165C8.01894 4.64323 8.01811 4.65636 8.01561 4.66795C8.01478 4.67258 8.01395 4.67798 8.01146 4.68185C8.00565 4.69343 7.99486 4.69961 7.98241 4.69806C7.96996 4.69652 7.95999 4.68725 7.95916 4.67412C7.95833 4.66717 7.95833 4.65945 7.95999 4.65173C7.96497 4.62238 7.96331 4.59381 7.95999 4.56523C7.95335 4.50885 7.94422 4.45248 7.92513 4.39842C7.90105 4.33432 7.86452 4.27794 7.80724 4.23392C7.77819 4.21153 7.7483 4.1899 7.71841 4.16751C7.67276 4.13352 7.62045 4.11113 7.56649 4.09105C7.55819 4.08796 7.54823 4.08719 7.53827 4.0841C7.53163 4.08255 7.52416 4.08101 7.51751 4.07792C7.5034 4.07174 7.49759 4.05861 7.50091 4.04548C7.50423 4.03313 7.51668 4.0254 7.53163 4.02695C7.54242 4.02772 7.55404 4.03004 7.56483 4.03313C7.62627 4.05089 7.68936 4.04703 7.75245 4.04162C7.7757 4.04008 7.79894 4.03776 7.82136 4.03313C7.87366 4.02154 7.91433 3.99451 7.93841 3.94895C7.9575 3.91342 7.97079 3.87635 7.97992 3.83697C7.99486 3.77596 8.01561 3.71572 8.02392 3.65316C8.02807 3.6215 8.03305 3.58984 8.0372 3.5574C8.03886 3.54891 8.03969 3.54041 8.04218 3.53192C8.04716 3.52342 8.05463 3.51647 8.06542 3.5157C8.07622 3.51493 8.08618 3.52033 8.0895 3.53114C8.09365 3.54273 8.09697 3.55508 8.0978 3.56744C8.10195 3.62459 8.1061 3.68174 8.11025 3.73966C8.1144 3.79218 8.11689 3.84469 8.12271 3.89643C8.12769 3.93891 8.14346 3.97907 8.1692 4.01537C8.19244 4.04857 8.22482 4.06943 8.263 4.0841C8.28791 4.09337 8.31198 4.10341 8.33689 4.11113C8.35017 4.11576 8.36511 4.11731 8.37923 4.1204C8.40662 4.12657 8.43485 4.13198 8.46224 4.13893C8.4747 4.14202 8.483 4.15051 8.48383 4.16287C8.48549 4.17446 8.47802 4.18604 8.46474 4.19067C8.4556 4.19376 8.44564 4.19608 8.43568 4.19608C8.41409 4.19685 8.39168 4.19608 8.3701 4.19608C8.37176 4.19454 8.37176 4.19299 8.37176 4.19222Z" fill="#F1F1F1"/>
<path d="M-0.0950804 20.2854C-0.126013 20.288 -0.156946 20.2893 -0.187175 20.2932C-0.232168 20.2998 -0.266616 20.322 -0.287706 20.3599C-0.301766 20.3854 -0.314421 20.4116 -0.324966 20.4391C-0.353086 20.5103 -0.369959 20.5849 -0.391049 20.6575C-0.393861 20.6673 -0.394564 20.6784 -0.396673 20.6882C-0.397376 20.6921 -0.398079 20.6967 -0.400188 20.7C-0.405109 20.7098 -0.414249 20.715 -0.424794 20.7137C-0.435339 20.7124 -0.443775 20.7046 -0.444478 20.6935C-0.445181 20.6876 -0.445181 20.681 -0.443775 20.6745C-0.439557 20.6496 -0.440963 20.6254 -0.443775 20.6012C-0.449399 20.5535 -0.457132 20.5058 -0.473302 20.46C-0.493689 20.4057 -0.524622 20.358 -0.57313 20.3207C-0.597735 20.3017 -0.623044 20.2834 -0.648352 20.2644C-0.687018 20.2357 -0.731308 20.2167 -0.777004 20.1997C-0.784034 20.1971 -0.79247 20.1964 -0.800906 20.1938C-0.80653 20.1925 -0.812857 20.1912 -0.818482 20.1886C-0.830433 20.1833 -0.835354 20.1722 -0.832542 20.1611C-0.82973 20.1506 -0.819185 20.1441 -0.80653 20.1454C-0.797391 20.1461 -0.787549 20.148 -0.77841 20.1506C-0.726387 20.1657 -0.672958 20.1624 -0.619529 20.1578C-0.599844 20.1565 -0.58016 20.1546 -0.561178 20.1506C-0.516889 20.1408 -0.482441 20.1179 -0.462054 20.0794C-0.445884 20.0493 -0.434636 20.0179 -0.426903 19.9845C-0.414249 19.9329 -0.396673 19.8818 -0.389643 19.8289C-0.386128 19.8021 -0.38191 19.7752 -0.378395 19.7478C-0.376989 19.7406 -0.376286 19.7334 -0.374177 19.7262C-0.369959 19.719 -0.363632 19.7131 -0.354492 19.7125C-0.345353 19.7118 -0.336917 19.7164 -0.334105 19.7255C-0.33059 19.7354 -0.327778 19.7458 -0.327075 19.7563C-0.32356 19.8047 -0.320045 19.8531 -0.31653 19.9021C-0.313015 19.9466 -0.310906 19.9911 -0.305985 20.0349C-0.301766 20.0709 -0.288409 20.1049 -0.266616 20.1356C-0.246931 20.1637 -0.219514 20.1814 -0.187175 20.1938C-0.166085 20.2017 -0.145697 20.2102 -0.124607 20.2167C-0.113359 20.2206 -0.100704 20.2219 -0.0887533 20.2245C-0.0655538 20.2298 -0.0416513 20.2344 -0.0184519 20.2402C-0.00790668 20.2429 -0.000876555 20.25 -0.000173541 20.2605C0.00123249 20.2703 -0.00509466 20.2801 -0.0163429 20.2841C-0.024076 20.2867 -0.0325122 20.2886 -0.0409484 20.2886C-0.0592267 20.2893 -0.078208 20.2886 -0.0964864 20.2886C-0.0950804 20.2873 -0.0950804 20.286 -0.0950804 20.2854Z" fill="#F1F1F1"/>
<path d="M5.32158 16.198C5.29064 16.2006 5.25971 16.2019 5.22948 16.2058C5.18449 16.2123 5.15004 16.2346 5.12895 16.2725C5.11489 16.298 5.10224 16.3242 5.09169 16.3517C5.06357 16.4229 5.0467 16.4975 5.02561 16.5701C5.0228 16.5799 5.02209 16.591 5.01998 16.6008C5.01928 16.6047 5.01858 16.6093 5.01647 16.6126C5.01155 16.6224 5.00241 16.6276 4.99186 16.6263C4.98132 16.625 4.97288 16.6172 4.97218 16.6061C4.97148 16.6002 4.97148 16.5936 4.97288 16.5871C4.9771 16.5622 4.97569 16.538 4.97288 16.5138C4.96726 16.4661 4.95952 16.4184 4.94335 16.3726C4.92297 16.3183 4.89203 16.2706 4.84353 16.2333C4.81892 16.2143 4.79361 16.196 4.7683 16.177C4.72964 16.1483 4.68535 16.1293 4.63965 16.1123C4.63262 16.1097 4.62419 16.109 4.61575 16.1064C4.61013 16.1051 4.6038 16.1038 4.59817 16.1012C4.58622 16.0959 4.5813 16.0848 4.58411 16.0737C4.58693 16.0632 4.59747 16.0567 4.61013 16.058C4.61927 16.0587 4.62911 16.0606 4.63825 16.0632C4.69027 16.0783 4.7437 16.075 4.79713 16.0704C4.81681 16.0691 4.8365 16.0672 4.85548 16.0632C4.89977 16.0534 4.93422 16.0305 4.9546 15.992C4.97077 15.9619 4.98202 15.9305 4.98975 15.8971C5.00241 15.8455 5.01998 15.7944 5.02701 15.7415C5.03053 15.7147 5.03475 15.6878 5.03826 15.6604C5.03967 15.6532 5.04037 15.646 5.04248 15.6388C5.0467 15.6316 5.05302 15.6257 5.06216 15.6251C5.0713 15.6244 5.07974 15.629 5.08255 15.6381C5.08607 15.648 5.08888 15.6584 5.08958 15.6689C5.0931 15.7173 5.09661 15.7657 5.10013 15.8147C5.10364 15.8592 5.10575 15.9037 5.11067 15.9475C5.11489 15.9835 5.12825 16.0175 5.15004 16.0482C5.16973 16.0763 5.19714 16.094 5.22948 16.1064C5.25057 16.1143 5.27096 16.1228 5.29205 16.1293C5.3033 16.1332 5.31595 16.1345 5.3279 16.1371C5.3511 16.1424 5.37501 16.147 5.3982 16.1528C5.40875 16.1555 5.41578 16.1626 5.41648 16.1731C5.41789 16.1829 5.41156 16.1927 5.40031 16.1967C5.39258 16.1993 5.38414 16.2012 5.37571 16.2012C5.35743 16.2019 5.33845 16.2012 5.32017 16.2012C5.32158 16.1999 5.32158 16.1986 5.32158 16.198Z" fill="#F1F1F1"/>
<path d="M14.0716 21.7642C14.0406 21.7672 14.0097 21.7688 13.9795 21.7733C13.9345 21.781 13.9 21.807 13.879 21.8514C13.8649 21.8812 13.8522 21.9119 13.8417 21.944C13.8136 22.0274 13.7967 22.1146 13.7756 22.1996C13.7728 22.2111 13.7721 22.2241 13.77 22.2355C13.7693 22.2401 13.7686 22.2455 13.7665 22.2493C13.7615 22.2608 13.7524 22.2669 13.7419 22.2654C13.7313 22.2639 13.7229 22.2547 13.7222 22.2417C13.7215 22.2348 13.7215 22.2271 13.7229 22.2195C13.7271 22.1904 13.7257 22.1621 13.7229 22.1338C13.7173 22.0779 13.7095 22.022 13.6934 21.9685C13.673 21.905 13.642 21.8491 13.5935 21.8055C13.5689 21.7833 13.5436 21.7619 13.5183 21.7397C13.4796 21.706 13.4353 21.6838 13.3897 21.6639C13.3826 21.6609 13.3742 21.6601 13.3658 21.657C13.3601 21.6555 13.3538 21.654 13.3482 21.6509C13.3362 21.6448 13.3313 21.6318 13.3341 21.6188C13.3369 21.6065 13.3475 21.5989 13.3601 21.6004C13.3693 21.6012 13.3791 21.6035 13.3882 21.6065C13.4403 21.6241 13.4937 21.6203 13.5471 21.6149C13.5668 21.6134 13.5865 21.6111 13.6055 21.6065C13.6498 21.595 13.6842 21.5683 13.7046 21.5231C13.7208 21.4879 13.732 21.4512 13.7398 21.4122C13.7524 21.3517 13.77 21.292 13.777 21.23C13.7805 21.1987 13.7847 21.1673 13.7883 21.1351C13.7897 21.1267 13.7904 21.1183 13.7925 21.1099C13.7967 21.1015 13.803 21.0946 13.8122 21.0938C13.8213 21.0931 13.8297 21.0984 13.8326 21.1091C13.8361 21.1206 13.8389 21.1328 13.8396 21.1451C13.8431 21.2017 13.8466 21.2583 13.8501 21.3157C13.8536 21.3678 13.8558 21.4198 13.8607 21.4711C13.8649 21.5132 13.8782 21.553 13.9 21.5889C13.9197 21.6218 13.9471 21.6425 13.9795 21.657C14.0006 21.6662 14.021 21.6762 14.042 21.6838C14.0533 21.6884 14.066 21.6899 14.0779 21.693C14.1011 21.6991 14.125 21.7045 14.1482 21.7114C14.1587 21.7144 14.1658 21.7228 14.1665 21.7351C14.1679 21.7466 14.1616 21.758 14.1503 21.7626C14.1426 21.7657 14.1341 21.768 14.1257 21.768C14.1074 21.7688 14.0884 21.768 14.0702 21.768C14.0716 21.7665 14.0716 21.7649 14.0716 21.7642Z" fill="#F1F1F1"/>
<path d="M11.524 11.4063C11.4776 11.4102 11.4312 11.4122 11.3859 11.4181C11.3184 11.4279 11.2667 11.4613 11.2351 11.5182C11.214 11.5564 11.195 11.5956 11.1792 11.6369C11.137 11.7438 11.1117 11.8556 11.0801 11.9645C11.0759 11.9792 11.0748 11.9959 11.0716 12.0106C11.0706 12.0165 11.0695 12.0234 11.0664 12.0283C11.059 12.043 11.0453 12.0508 11.0295 12.0489C11.0136 12.0469 11.001 12.0351 10.9999 12.0185C10.9989 12.0096 10.9989 11.9998 11.001 11.99C11.0073 11.9527 11.0052 11.9164 11.001 11.8801C10.9926 11.8085 10.981 11.7369 10.9567 11.6682C10.9261 11.5868 10.8797 11.5152 10.807 11.4593C10.7701 11.4308 10.7321 11.4034 10.6941 11.3749C10.6361 11.3318 10.5697 11.3033 10.5012 11.2778C10.4906 11.2739 10.478 11.2729 10.4653 11.269C10.4569 11.267 10.4474 11.2651 10.4389 11.2611C10.421 11.2533 10.4136 11.2366 10.4178 11.2199C10.4221 11.2042 10.4379 11.1944 10.4569 11.1964C10.4706 11.1974 10.4853 11.2003 10.499 11.2042C10.5771 11.2268 10.6572 11.2219 10.7374 11.215C10.7669 11.2131 10.7964 11.2101 10.8249 11.2042C10.8913 11.1895 10.943 11.1552 10.9736 11.0973C10.9978 11.0522 11.0147 11.0051 11.0263 10.9551C11.0453 10.8776 11.0716 10.801 11.0822 10.7216C11.0875 10.6814 11.0938 10.6411 11.0991 10.5999C11.1012 10.5891 11.1022 10.5784 11.1054 10.5676C11.1117 10.5568 11.1212 10.5479 11.1349 10.547C11.1486 10.546 11.1613 10.5529 11.1655 10.5666C11.1708 10.5813 11.175 10.597 11.176 10.6127C11.1813 10.6853 11.1866 10.7579 11.1919 10.8315C11.1971 10.8982 11.2003 10.9649 11.2077 11.0306C11.214 11.0846 11.234 11.1356 11.2667 11.1817C11.2963 11.2239 11.3374 11.2503 11.3859 11.269C11.4175 11.2808 11.4481 11.2935 11.4797 11.3033C11.4966 11.3092 11.5156 11.3112 11.5335 11.3151C11.5683 11.3229 11.6042 11.3298 11.639 11.3386C11.6548 11.3426 11.6653 11.3533 11.6664 11.369C11.6685 11.3838 11.659 11.3985 11.6421 11.4044C11.6305 11.4083 11.6179 11.4112 11.6052 11.4112C11.5778 11.4122 11.5493 11.4112 11.5219 11.4112C11.524 11.4093 11.524 11.4073 11.524 11.4063Z" fill="#F1F1F1"/>
</g>
<defs>
<filter id="filter0_f_1070_26724" x="-24.8333" y="-31.8125" width="91.3333" height="88.625" filterUnits="userSpaceOnUse" color-interpolation-filters="sRGB">
<feFlood flood-opacity="0" result="BackgroundImageFix"/>
<feBlend mode="normal" in="SourceGraphic" in2="BackgroundImageFix" result="shape"/>
<feGaussianBlur stdDeviation="12" result="effect1_foregroundBlur_1070_26724"/>
</filter>
<filter id="filter1_f_1070_26724" x="-14.8333" y="-31.0312" width="88.8333" height="86.2812" filterUnits="userSpaceOnUse" color-interpolation-filters="sRGB">
<feFlood flood-opacity="0" result="BackgroundImageFix"/>
<feBlend mode="normal" in="SourceGraphic" in2="BackgroundImageFix" result="shape"/>
<feGaussianBlur stdDeviation="12" result="effect1_foregroundBlur_1070_26724"/>
</filter>
<filter id="filter2_f_1070_26724" x="-4.83334" y="-30.6406" width="88.8333" height="86.2812" filterUnits="userSpaceOnUse" color-interpolation-filters="sRGB">
<feFlood flood-opacity="0" result="BackgroundImageFix"/>
<feBlend mode="normal" in="SourceGraphic" in2="BackgroundImageFix" result="shape"/>
<feGaussianBlur stdDeviation="12" result="effect1_foregroundBlur_1070_26724"/>
</filter>
<clipPath id="clip0_1070_26724">
<rect width="50" height="25" rx="12.5" fill="white"/>
</clipPath>
</defs>
</svg>
