<svg width="32" height="29" viewBox="0 0 32 29" fill="none" xmlns="http://www.w3.org/2000/svg">
<path d="M18.416 25.625C18.8292 25.625 19.1756 25.4853 19.4551 25.2058C19.7346 24.9263 19.8743 24.5799 19.8743 24.1667C19.8743 23.7535 19.7346 23.4072 19.4551 23.1276C19.1756 22.8481 18.8292 22.7084 18.416 22.7084C18.0028 22.7084 17.6565 22.8481 17.377 23.1276C17.0974 23.4072 16.9577 23.7535 16.9577 24.1667C16.9577 24.5799 17.0974 24.9263 17.377 25.2058C17.6565 25.4853 18.0028 25.625 18.416 25.625ZM27.166 11.0417C27.5792 11.0417 27.9256 10.902 28.2051 10.6224C28.4846 10.3429 28.6243 9.99657 28.6243 9.58337C28.6243 9.17018 28.4846 8.82383 28.2051 8.54431C27.9256 8.2648 27.5792 8.12504 27.166 8.12504C26.7528 8.12504 26.4065 8.2648 26.127 8.54431C25.8474 8.82383 25.7077 9.17018 25.7077 9.58337C25.7077 9.99657 25.8474 10.3429 26.127 10.6224C26.4065 10.902 26.7528 11.0417 27.166 11.0417ZM12.5827 11.0417C12.9959 11.0417 13.3422 10.902 13.6217 10.6224C13.9013 10.3429 14.041 9.99657 14.041 9.58337C14.041 9.17018 13.9013 8.82383 13.6217 8.54431C13.3422 8.2648 12.9959 8.12504 12.5827 8.12504H8.20768C7.79449 8.12504 7.44813 8.2648 7.16862 8.54431C6.88911 8.82383 6.74935 9.17018 6.74935 9.58337C6.74935 9.99657 6.88911 10.3429 7.16862 10.6224C7.44813 10.902 7.79449 11.0417 8.20768 11.0417H12.5827ZM12.5827 16.875C12.9959 16.875 13.3422 16.7353 13.6217 16.4558C13.9013 16.1763 14.041 15.8299 14.041 15.4167C14.041 15.0035 13.9013 14.6572 13.6217 14.3776C13.3422 14.0981 12.9959 13.9584 12.5827 13.9584H8.20768C7.79449 13.9584 7.44813 14.0981 7.16862 14.3776C6.88911 14.6572 6.74935 15.0035 6.74935 15.4167C6.74935 15.8299 6.88911 16.1763 7.16862 16.4558C7.44813 16.7353 7.79449 16.875 8.20768 16.875H12.5827ZM3.83268 24.1667C3.0306 24.1667 2.34397 23.8811 1.77279 23.3099C1.20161 22.7388 0.916016 22.0521 0.916016 21.25V3.75004C0.916016 2.94796 1.20161 2.26133 1.77279 1.69014C2.34397 1.11896 3.0306 0.833374 3.83268 0.833374H28.6243C29.0375 0.833374 29.3839 0.973131 29.6634 1.25264C29.9429 1.53216 30.0827 1.87851 30.0827 2.29171C30.0827 2.7049 29.9429 3.05126 29.6634 3.33077C29.3839 3.61028 29.0375 3.75004 28.6243 3.75004H3.83268V21.25H9.66602C10.0792 21.25 10.4256 21.3898 10.7051 21.6693C10.9846 21.9488 11.1243 22.2952 11.1243 22.7084C11.1243 23.1216 10.9846 23.4679 10.7051 23.7474C10.4256 24.027 10.0792 24.1667 9.66602 24.1667H3.83268ZM18.416 28.5417C17.2007 28.5417 16.1678 28.1164 15.3171 27.2657C14.4664 26.415 14.041 25.382 14.041 24.1667C14.041 23.2188 14.3145 22.3681 14.8613 21.6146C15.4082 20.8612 16.107 20.3386 16.9577 20.0469V16.875C16.9577 16.4618 17.0974 16.1155 17.377 15.836C17.6565 15.5565 18.0028 15.4167 18.416 15.4167H25.7077V13.7032C24.857 13.4115 24.1582 12.8889 23.6113 12.1355C23.0645 11.382 22.791 10.5313 22.791 9.58337C22.791 8.3681 23.2164 7.33511 24.0671 6.48442C24.9178 5.63372 25.9507 5.20837 27.166 5.20837C28.3813 5.20837 29.4143 5.63372 30.265 6.48442C31.1157 7.33511 31.541 8.3681 31.541 9.58337C31.541 10.5313 31.2676 11.382 30.7207 12.1355C30.1738 12.8889 29.475 13.4115 28.6243 13.7032V16.875C28.6243 17.2882 28.4846 17.6346 28.2051 17.9141C27.9256 18.1936 27.5792 18.3334 27.166 18.3334H19.8743V20.0469C20.725 20.3386 21.4238 20.8612 21.9707 21.6146C22.5176 22.3681 22.791 23.2188 22.791 24.1667C22.791 25.382 22.3657 26.415 21.515 27.2657C20.6643 28.1164 19.6313 28.5417 18.416 28.5417Z" fill="#FB3E82"/>
</svg>
