<svg width="25" height="21" viewBox="0 0 25 21" fill="none" xmlns="http://www.w3.org/2000/svg">
<path d="M2.29232 17.7917H22.709C23.1222 17.7917 23.4685 17.9314 23.748 18.2109C24.0276 18.4905 24.1673 18.8368 24.1673 19.25C24.1673 19.6632 24.0276 20.0095 23.748 20.2891C23.4685 20.5686 23.1222 20.7083 22.709 20.7083H2.29232C1.87912 20.7083 1.53277 20.5686 1.25326 20.2891C0.973741 20.0095 0.833984 19.6632 0.833984 19.25C0.833984 18.8368 0.973741 18.4905 1.25326 18.2109C1.53277 17.9314 1.87912 17.7917 2.29232 17.7917ZM2.29232 11.9583H22.709C23.1222 11.9583 23.4685 12.0981 23.748 12.3776C24.0276 12.6571 24.1673 13.0035 24.1673 13.4167C24.1673 13.8299 24.0276 14.1762 23.748 14.4557C23.4685 14.7352 23.1222 14.875 22.709 14.875H2.29232C1.87912 14.875 1.53277 14.7352 1.25326 14.4557C0.973741 14.1762 0.833984 13.8299 0.833984 13.4167C0.833984 13.0035 0.973741 12.6571 1.25326 12.3776C1.53277 12.0981 1.87912 11.9583 2.29232 11.9583ZM1.52669 5.17708L7.94336 1.27604C8.42947 0.960069 8.96419 0.814236 9.54753 0.838542C10.1309 0.862847 10.6656 1.04514 11.1517 1.38542L16.8757 5.46875L21.8704 1.93229C22.3566 1.59201 22.8609 1.54948 23.3835 1.80469C23.906 2.0599 24.1673 2.49132 24.1673 3.09896C24.1673 3.34201 24.1126 3.57292 24.0033 3.79167C23.8939 4.01042 23.742 4.18056 23.5475 4.30208L18.5527 7.83854C18.0423 8.20312 17.4833 8.38542 16.8757 8.38542C16.268 8.38542 15.709 8.20312 15.1986 7.83854L9.47461 3.79167L3.05794 7.69271C2.57183 7.98437 2.07964 7.99045 1.58138 7.71094C1.08312 7.43142 0.833984 7.01215 0.833984 6.45312C0.833984 6.18576 0.894748 5.93663 1.01628 5.70573C1.1378 5.47483 1.30794 5.29861 1.52669 5.17708Z" fill="#FF5952"/>
</svg>
