<svg width="31" height="15" viewBox="0 0 31 15" fill="none" xmlns="http://www.w3.org/2000/svg">
<path d="M8.20768 14.7917C6.19032 14.7917 4.4707 14.0808 3.04883 12.6589C1.62695 11.237 0.916016 9.5174 0.916016 7.50004C0.916016 5.48268 1.62695 3.76306 3.04883 2.34119C4.4707 0.919311 6.19032 0.208374 8.20768 0.208374H12.5827C12.9959 0.208374 13.3422 0.348131 13.6217 0.627645C13.9013 0.907159 14.041 1.25351 14.041 1.66671C14.041 2.0799 13.9013 2.42626 13.6217 2.70577C13.3422 2.98528 12.9959 3.12504 12.5827 3.12504H8.20768C6.9924 3.12504 5.95942 3.55039 5.10872 4.40108C4.25803 5.25178 3.83268 6.28476 3.83268 7.50004C3.83268 8.71532 4.25803 9.7483 5.10872 10.599C5.95942 11.4497 6.9924 11.875 8.20768 11.875H12.5827C12.9959 11.875 13.3422 12.0148 13.6217 12.2943C13.9013 12.5738 14.041 12.9202 14.041 13.3334C14.041 13.7466 13.9013 14.0929 13.6217 14.3724C13.3422 14.652 12.9959 14.7917 12.5827 14.7917H8.20768ZM11.1243 8.95837C10.7112 8.95837 10.3648 8.81862 10.0853 8.5391C9.80577 8.25959 9.66602 7.91323 9.66602 7.50004C9.66602 7.08685 9.80577 6.74049 10.0853 6.46098C10.3648 6.18146 10.7112 6.04171 11.1243 6.04171H19.8743C20.2875 6.04171 20.6339 6.18146 20.9134 6.46098C21.1929 6.74049 21.3327 7.08685 21.3327 7.50004C21.3327 7.91323 21.1929 8.25959 20.9134 8.5391C20.6339 8.81862 20.2875 8.95837 19.8743 8.95837H11.1243ZM18.416 14.7917C18.0028 14.7917 17.6565 14.652 17.377 14.3724C17.0974 14.0929 16.9577 13.7466 16.9577 13.3334C16.9577 12.9202 17.0974 12.5738 17.377 12.2943C17.6565 12.0148 18.0028 11.875 18.416 11.875H22.791C24.0063 11.875 25.0393 11.4497 25.89 10.599C26.7407 9.7483 27.166 8.71532 27.166 7.50004C27.166 6.28476 26.7407 5.25178 25.89 4.40108C25.0393 3.55039 24.0063 3.12504 22.791 3.12504H18.416C18.0028 3.12504 17.6565 2.98528 17.377 2.70577C17.0974 2.42626 16.9577 2.0799 16.9577 1.66671C16.9577 1.25351 17.0974 0.907159 17.377 0.627645C17.6565 0.348131 18.0028 0.208374 18.416 0.208374H22.791C24.8084 0.208374 26.528 0.919311 27.9499 2.34119C29.3717 3.76306 30.0827 5.48268 30.0827 7.50004C30.0827 9.5174 29.3717 11.237 27.9499 12.6589C26.528 14.0808 24.8084 14.7917 22.791 14.7917H18.416Z" fill="#9678F2"/>
</svg>
