<svg width="36" height="35" viewBox="0 0 36 35" fill="none" xmlns="http://www.w3.org/2000/svg">
<mask id="mask0_3855_30229" style="mask-type:alpha" maskUnits="userSpaceOnUse" x="0" y="0" width="36" height="35">
<rect x="0.5" width="35" height="35" fill="#D9D9D9"/>
</mask>
<g mask="url(#mask0_3855_30229)">
<path d="M3.05165 25.5938C2.73568 25.375 2.54731 25.0773 2.48655 24.7006C2.42578 24.3238 2.49262 23.9653 2.68707 23.625L8.19228 14.8021C8.45964 14.3889 8.8303 14.1641 9.30425 14.1276C9.77821 14.0912 10.1853 14.2552 10.5256 14.6198L13.6246 18.2292L18.2548 10.6823C18.5221 10.2205 18.9293 9.98961 19.4761 9.98961C20.023 9.98961 20.4423 10.2084 20.7339 10.6459L22.2287 12.9063C22.4961 13.3195 22.5751 13.7144 22.4657 14.0912C22.3563 14.4679 22.1437 14.7535 21.8277 14.9479C21.5117 15.1424 21.1654 15.2214 20.7886 15.1849C20.4119 15.1485 20.0898 14.9236 19.8225 14.5104L19.5673 14.1459L15.0829 21.4375C14.8155 21.8507 14.4388 22.0816 13.9527 22.1302C13.4666 22.1789 13.0534 22.0087 12.7131 21.6198L9.61415 18.0104L5.16623 25.1927C4.94748 25.5573 4.62543 25.7821 4.20009 25.8672C3.77474 25.9523 3.39193 25.8611 3.05165 25.5938ZM23.9423 30.0052C22.1194 30.0052 20.5699 29.3672 19.2938 28.0912C18.0178 26.8151 17.3798 25.2657 17.3798 23.4427C17.3798 21.6198 18.0178 20.0703 19.2938 18.7943C20.5699 17.5183 22.1194 16.8802 23.9423 16.8802C25.7652 16.8802 27.3147 17.5183 28.5907 18.7943C29.8668 20.0703 30.5048 21.6198 30.5048 23.4427C30.5048 24.0747 30.4197 24.6884 30.2496 25.2839C30.0794 25.8794 29.8242 26.4323 29.4839 26.9427L32.9839 30.4427C33.2756 30.7344 33.4275 31.0747 33.4397 31.4636C33.4518 31.8525 33.3121 32.1927 33.0204 32.4844C32.7287 32.7761 32.3824 32.9219 31.9813 32.9219C31.5803 32.9219 31.2339 32.7761 30.9423 32.4844L27.4058 28.9844C26.9197 29.3247 26.3789 29.5799 25.7834 29.75C25.1879 29.9202 24.5742 30.0052 23.9423 30.0052ZM23.9423 27.0886C24.9631 27.0886 25.826 26.7361 26.5308 26.0313C27.2357 25.3264 27.5881 24.4636 27.5881 23.4427C27.5881 22.4219 27.2357 21.5591 26.5308 20.8542C25.826 20.1493 24.9631 19.7969 23.9423 19.7969C22.9214 19.7969 22.0586 20.1493 21.3537 20.8542C20.6489 21.5591 20.2964 22.4219 20.2964 23.4427C20.2964 24.4636 20.6489 25.3264 21.3537 26.0313C22.0586 26.7361 22.9214 27.0886 23.9423 27.0886ZM25.7287 15.0209C25.4128 14.8264 25.194 14.5469 25.0725 14.1823C24.951 13.8177 25.0239 13.4289 25.2912 13.0157L30.8329 4.2292C31.0517 3.88892 31.3676 3.67017 31.7808 3.57295C32.194 3.47572 32.5707 3.56079 32.911 3.82815C33.227 4.0469 33.4214 4.34465 33.4944 4.72138C33.5673 5.09812 33.5065 5.45663 33.3121 5.7969L27.7339 14.5469C27.4666 14.9601 27.1445 15.191 26.7678 15.2396C26.3911 15.2882 26.0447 15.2153 25.7287 15.0209Z" fill="#FF5952"/>
</g>
</svg>
