<svg width="24" height="24" viewBox="0 0 24 24" fill="none" xmlns="http://www.w3.org/2000/svg">
<mask id="mask0_4471_12875" style="mask-type:alpha" maskUnits="userSpaceOnUse" x="0" y="0" width="24" height="24">
<rect width="24" height="24" fill="#D9D9D9"/>
</mask>
<g mask="url(#mask0_4471_12875)">
<path d="M13.0001 21C11.9501 21 10.9584 20.8333 10.0251 20.5C9.09178 20.1667 8.24178 19.7 7.47511 19.1C7.25844 18.9167 7.14178 18.6875 7.12511 18.4125C7.10844 18.1375 7.20011 17.9 7.40011 17.7C7.60011 17.5 7.83761 17.4 8.11261 17.4C8.38761 17.4 8.64178 17.4833 8.87511 17.65C9.45844 18.0833 10.0959 18.4167 10.7876 18.65C11.4793 18.8833 12.2168 19 13.0001 19C14.9334 19 16.5834 18.3167 17.9501 16.95C19.3168 15.5833 20.0001 13.9333 20.0001 12C20.0001 10.0667 19.3168 8.41667 17.9501 7.05C16.5834 5.68333 14.9334 5 13.0001 5C11.0668 5 9.41678 5.68333 8.05011 7.05C6.68344 8.41667 6.00011 10.0667 6.00011 12V12.175L7.12511 11.05C7.30844 10.8667 7.53761 10.775 7.81261 10.775C8.08761 10.775 8.32511 10.8667 8.52511 11.05C8.72511 11.25 8.82511 11.4875 8.82511 11.7625C8.82511 12.0375 8.72511 12.275 8.52511 12.475L5.70011 15.3C5.50011 15.5 5.26678 15.6 5.00011 15.6C4.73344 15.6 4.50011 15.5 4.30011 15.3L1.45011 12.45C1.25011 12.25 1.15428 12.0125 1.16261 11.7375C1.17094 11.4625 1.27511 11.2333 1.47511 11.05C1.67511 10.8667 1.91261 10.7708 2.18761 10.7625C2.46261 10.7542 2.69178 10.85 2.87511 11.05L4.00011 12.2V12C4.00011 10.75 4.23761 9.57917 4.71261 8.4875C5.18761 7.39583 5.82928 6.44583 6.63761 5.6375C7.44594 4.82917 8.39594 4.1875 9.48761 3.7125C10.5793 3.2375 11.7501 3 13.0001 3C14.2501 3 15.4209 3.2375 16.5126 3.7125C17.6043 4.1875 18.5543 4.82917 19.3626 5.6375C20.1709 6.44583 20.8126 7.39583 21.2876 8.4875C21.7626 9.57917 22.0001 10.75 22.0001 12C22.0001 14.5 21.1251 16.625 19.3751 18.375C17.6251 20.125 15.5001 21 13.0001 21ZM11.0001 16C10.7168 16 10.4793 15.9042 10.2876 15.7125C10.0959 15.5208 10.0001 15.2833 10.0001 15V12C10.0001 11.7167 10.0959 11.4792 10.2876 11.2875C10.4793 11.0958 10.7168 11 11.0001 11V10C11.0001 9.45 11.1959 8.97917 11.5876 8.5875C11.9793 8.19583 12.4501 8 13.0001 8C13.5501 8 14.0209 8.19583 14.4126 8.5875C14.8043 8.97917 15.0001 9.45 15.0001 10V11C15.2834 11 15.5209 11.0958 15.7126 11.2875C15.9043 11.4792 16.0001 11.7167 16.0001 12V15C16.0001 15.2833 15.9043 15.5208 15.7126 15.7125C15.5209 15.9042 15.2834 16 15.0001 16H11.0001ZM12.0001 11H14.0001V10C14.0001 9.71667 13.9043 9.47917 13.7126 9.2875C13.5209 9.09583 13.2834 9 13.0001 9C12.7168 9 12.4793 9.09583 12.2876 9.2875C12.0959 9.47917 12.0001 9.71667 12.0001 10V11Z" fill="#4399EB"/>
</g>
</svg>
