<svg width="200" height="45" viewBox="0 0 200 45" fill="none" xmlns="http://www.w3.org/2000/svg">
<g clip-path="url(#clip0_1868_5410)">
<path d="M22.9293 44.9634C35.5907 44.9634 45.8548 34.898 45.8548 22.4817C45.8548 10.0654 35.5907 0 22.9293 0C10.268 0 0.00390625 10.0654 0.00390625 22.4817C0.00390625 34.898 10.268 44.9634 22.9293 44.9634Z" fill="#4399EB"/>
<path d="M70.0842 13.0501V32.2418H67.102L56.2917 19.2646V32.2418H52.6758V13.0501H55.658L66.431 26.0274V13.0501H70.0842Z" fill="#333333"/>
<path d="M74.8935 14.6223C74.4462 14.2201 74.2598 13.7449 74.2598 13.16C74.2598 12.5751 74.4834 12.0999 74.8935 11.6978C75.3035 11.2957 75.8627 11.1129 76.4964 11.1129C77.1301 11.1129 77.652 11.2957 78.0993 11.6612C78.5094 12.0268 78.733 12.502 78.733 13.0869C78.733 13.6718 78.5094 14.1836 78.0993 14.6223C77.6893 15.0609 77.1301 15.2437 76.4964 15.2437C75.8254 15.2071 75.3035 14.9878 74.8935 14.6223ZM74.7071 17.6198H78.2111V32.2421H74.7071V17.6198Z" fill="#333333"/>
<path d="M86.374 16.852V17.7294H90.4745V20.4711H86.4858V32.2785H82.9818V20.4711H80.5215V17.7294H82.9818V16.8155C82.9818 15.2436 83.4291 14.0007 84.3983 13.0868C85.3302 12.1729 86.6349 11.7343 88.3497 11.7343C89.6917 11.7343 90.7354 11.9901 91.5182 12.5385L90.549 15.0974C89.9526 14.6953 89.3189 14.5125 88.6106 14.5125C87.1195 14.4759 86.374 15.2801 86.374 16.852Z" fill="#333333"/>
<path d="M101.508 31.4744C101.098 31.8034 100.614 32.0593 100.017 32.2055C99.4208 32.3517 98.8244 32.4614 98.1534 32.4614C96.5132 32.4614 95.2458 32.0593 94.3511 31.2185C93.4564 30.3777 93.0091 29.1714 93.0091 27.5264V20.4711H90.5488V17.7295H93.0091V14.4029H96.5132V17.7295H100.502V20.4711H96.5132V27.4167C96.5132 28.1478 96.6996 28.6596 97.035 29.0617C97.3705 29.4273 97.8924 29.61 98.5634 29.61C99.3462 29.61 99.9799 29.4273 100.502 29.0252L101.508 31.4744Z" fill="#333333"/>
<path d="M117.835 17.6198L110.827 33.4484C110.156 35.0569 109.373 36.1535 108.441 36.8115C107.509 37.4695 106.391 37.7985 105.049 37.7985C104.304 37.7985 103.558 37.6889 102.85 37.433C102.104 37.1771 101.545 36.8481 101.061 36.446L102.477 33.9236C102.813 34.2161 103.223 34.472 103.67 34.6547C104.117 34.8375 104.602 34.9472 105.049 34.9472C105.683 34.9472 106.168 34.801 106.578 34.472C106.988 34.143 107.36 33.6312 107.696 32.9001L107.957 32.3152L101.396 17.6198H105.049L109.746 28.4403L114.48 17.6198H117.835Z" fill="#333333"/>
<path d="M122.197 14.8048H115.301V13.0501H131.144V14.8048H124.247V32.2418H122.197V14.8048Z" fill="#333333"/>
<path d="M136.586 18.4606C137.518 17.9488 138.637 17.7295 140.016 17.7295V19.6304L139.531 19.5938C137.966 19.5938 136.773 20.0691 135.878 20.9829C134.983 21.9334 134.573 23.2128 134.573 24.8944V32.2421H132.598V17.8392H134.499V20.6539C134.946 19.7035 135.654 18.9724 136.586 18.4606Z" fill="#333333"/>
<path d="M152.094 19.1186C153.1 20.069 153.622 21.4582 153.622 23.2859V32.2421H151.721V30.0122C151.273 30.7799 150.602 31.3647 149.745 31.7669C148.888 32.2055 147.844 32.3883 146.651 32.3883C145.011 32.3883 143.706 32.0227 142.737 31.2551C141.768 30.4874 141.283 29.4639 141.283 28.221C141.283 27.0146 141.731 26.0276 142.625 25.26C143.52 24.5288 144.974 24.1267 146.949 24.1267H151.609V23.2494C151.609 22.0065 151.236 21.0561 150.565 20.398C149.857 19.74 148.813 19.411 147.471 19.411C146.539 19.411 145.645 19.5573 144.787 19.8497C143.93 20.1422 143.184 20.5808 142.588 21.0926L141.693 19.6304C142.439 19.0089 143.333 18.5337 144.377 18.2047C145.421 17.8757 146.502 17.6929 147.658 17.6929C149.596 17.7295 151.05 18.2047 152.094 19.1186ZM149.857 30.0853C150.64 29.5735 151.273 28.8424 151.646 27.892V25.5524H147.024C144.489 25.5524 143.259 26.4297 143.259 28.1113C143.259 28.9521 143.594 29.6101 144.228 30.0853C144.899 30.5605 145.794 30.8164 146.949 30.8164C148.105 30.853 149.037 30.5971 149.857 30.0853Z" fill="#333333"/>
<path d="M171.479 11.917V32.2419H169.578V29.3906C168.981 30.3776 168.198 31.1087 167.229 31.6205C166.26 32.1323 165.142 32.3882 163.912 32.3882C162.532 32.3882 161.302 32.0957 160.184 31.4743C159.066 30.8528 158.171 29.9755 157.575 28.8788C156.941 27.7821 156.643 26.5027 156.643 25.077C156.643 23.6514 156.941 22.3719 157.575 21.2752C158.208 20.1786 159.066 19.3012 160.184 18.6798C161.302 18.0583 162.532 17.7659 163.912 17.7659C165.104 17.7659 166.186 18.0218 167.155 18.497C168.124 18.9722 168.907 19.7033 169.503 20.6172V11.917H171.479ZM166.857 29.9755C167.677 29.5003 168.348 28.8423 168.832 28.0015C169.317 27.1607 169.54 26.1737 169.54 25.077C169.54 23.9804 169.317 22.9934 168.832 22.1526C168.348 21.3118 167.714 20.6172 166.857 20.1786C166.036 19.7033 165.104 19.484 164.061 19.484C163.017 19.484 162.085 19.7033 161.265 20.1786C160.445 20.6538 159.774 21.3118 159.289 22.1526C158.805 23.0299 158.581 23.9804 158.581 25.077C158.581 26.1737 158.805 27.1607 159.289 28.0015C159.774 28.8788 160.408 29.5368 161.265 29.9755C162.085 30.4507 163.017 30.67 164.061 30.67C165.104 30.67 165.999 30.4142 166.857 29.9755Z" fill="#333333"/>
<path d="M189.519 25.6621H177.218C177.33 27.1608 177.926 28.3672 178.97 29.2811C180.014 30.195 181.393 30.6702 182.996 30.6702C183.891 30.6702 184.748 30.524 185.531 30.195C186.276 29.866 186.947 29.3907 187.507 28.7693L188.625 30.0122C187.954 30.7798 187.171 31.3647 186.165 31.7669C185.195 32.169 184.114 32.3517 182.921 32.3517C181.393 32.3517 180.088 32.0227 178.896 31.4013C177.74 30.7799 176.808 29.9025 176.174 28.7693C175.503 27.6726 175.205 26.3932 175.205 24.9675C175.205 23.5784 175.503 22.2989 176.137 21.1657C176.771 20.069 177.628 19.1917 178.709 18.5703C179.79 17.9488 181.02 17.6564 182.4 17.6564C183.742 17.6564 184.972 17.9854 186.053 18.5703C187.134 19.1917 187.991 20.069 188.588 21.1657C189.221 22.2624 189.519 23.5418 189.519 24.9675V25.6621ZM178.858 20.727C177.889 21.6044 177.367 22.7742 177.218 24.1998H187.656C187.507 22.7742 186.985 21.6044 186.015 20.727C185.046 19.8497 183.853 19.411 182.437 19.411C181.02 19.411 179.827 19.8497 178.858 20.727Z" fill="#333333"/>
<path d="M196.565 18.4606C197.497 17.9488 198.615 17.7295 199.994 17.7295V19.6304L199.51 19.5938C197.944 19.5938 196.751 20.0691 195.857 20.9829C194.962 21.9334 194.552 23.2128 194.552 24.8944V32.2421H192.576V17.8392H194.477V20.6539C194.962 19.7035 195.633 18.9724 196.565 18.4606Z" fill="#333333"/>
<path d="M115.527 35.0933V36.2629H117.428V36.8843H115.527V38.3463H114.781V34.5085H117.652V35.0933H115.527Z" fill="#333333"/>
<path d="M118.211 34.8009C118.137 34.7278 118.1 34.6182 118.1 34.5085C118.1 34.3988 118.137 34.2892 118.211 34.2161C118.286 34.143 118.398 34.1064 118.547 34.1064C118.696 34.1064 118.771 34.143 118.882 34.2161C118.957 34.2892 118.994 34.3988 118.994 34.5085C118.994 34.6182 118.957 34.7278 118.882 34.8009C118.808 34.874 118.696 34.9106 118.547 34.9106C118.398 34.9471 118.286 34.874 118.211 34.8009ZM118.174 35.4223H118.882V38.3463H118.174V35.4223Z" fill="#333333"/>
<path d="M122.348 35.7146C122.571 35.9339 122.683 36.2629 122.683 36.6649V38.3463H121.975V36.7746C121.975 36.5187 121.9 36.336 121.789 36.1898C121.677 36.0436 121.49 36.007 121.267 36.007C121.006 36.007 120.819 36.0801 120.67 36.2263C120.521 36.3725 120.447 36.5918 120.447 36.8842V38.3463H119.738V35.4222H120.409V35.7877C120.521 35.6415 120.67 35.5319 120.857 35.4953C121.043 35.4222 121.229 35.3857 121.453 35.3857C121.789 35.3857 122.087 35.4953 122.348 35.7146Z" fill="#333333"/>
<path d="M126.45 34.2892V38.3463H125.779V37.9808C125.667 38.127 125.518 38.2366 125.369 38.3097C125.182 38.3828 124.996 38.4194 124.809 38.4194C124.511 38.4194 124.25 38.3463 124.027 38.2366C123.803 38.127 123.617 37.9442 123.505 37.7249C123.393 37.5056 123.318 37.2498 123.318 36.9208C123.318 36.6284 123.393 36.3726 123.505 36.1533C123.654 35.934 123.803 35.7512 124.027 35.6415C124.25 35.5319 124.511 35.4588 124.809 35.4588C124.996 35.4588 125.182 35.4953 125.369 35.5684C125.518 35.6415 125.667 35.7512 125.779 35.8609V34.3623H126.45V34.2892ZM125.331 37.6884C125.48 37.6153 125.555 37.5056 125.667 37.3594C125.779 37.2132 125.779 37.067 125.779 36.8843C125.779 36.7015 125.741 36.5553 125.667 36.4091C125.592 36.2629 125.48 36.1533 125.331 36.0802C125.182 36.0071 125.033 35.9705 124.884 35.9705C124.735 35.9705 124.549 36.0071 124.437 36.0802C124.325 36.1533 124.213 36.2629 124.101 36.4091C123.989 36.5553 123.989 36.7015 123.989 36.8843C123.989 37.067 124.027 37.2132 124.101 37.3594C124.176 37.5056 124.288 37.6153 124.437 37.6884C124.586 37.7615 124.735 37.798 124.884 37.798C125.033 37.798 125.22 37.7615 125.331 37.6884Z" fill="#333333"/>
<path d="M131.593 35.4222L130.177 38.6021C130.028 38.9311 129.879 39.1504 129.692 39.26C129.506 39.4062 129.282 39.4428 129.021 39.4428C128.872 39.4428 128.723 39.4062 128.574 39.3697C128.425 39.3331 128.313 39.26 128.201 39.1869L128.499 38.6752C128.574 38.7483 128.648 38.7849 128.723 38.8214C128.798 38.858 128.909 38.8945 128.984 38.8945C129.096 38.8945 129.208 38.858 129.282 38.7849C129.357 38.7118 129.431 38.6021 129.506 38.4559L129.543 38.3463L128.238 35.4222H128.984L129.916 37.5787L130.848 35.4222H131.593Z" fill="#333333"/>
<path d="M132.414 38.2001C132.19 38.0904 131.966 37.9077 131.854 37.6518C131.743 37.396 131.668 37.1767 131.668 36.8842C131.668 36.5918 131.743 36.336 131.854 36.1167C131.966 35.8974 132.19 35.7146 132.414 35.5684C132.674 35.4588 132.935 35.3857 133.234 35.3857C133.532 35.3857 133.83 35.4588 134.054 35.5684C134.277 35.7146 134.501 35.8608 134.613 36.1167C134.725 36.3725 134.799 36.5918 134.799 36.8842C134.799 37.1767 134.725 37.4325 134.613 37.6518C134.501 37.8711 134.277 38.0539 134.054 38.2001C133.793 38.3097 133.532 38.3828 133.234 38.3828C132.935 38.3828 132.674 38.3097 132.414 38.2001ZM133.867 37.5422C134.054 37.3594 134.128 37.1401 134.128 36.8842C134.128 36.6284 134.054 36.3725 133.867 36.2263C133.681 36.0801 133.495 35.9705 133.234 35.9705C132.973 35.9705 132.749 36.0436 132.6 36.2263C132.451 36.4091 132.339 36.6284 132.339 36.8842C132.339 37.1401 132.414 37.396 132.6 37.5422C132.749 37.7249 132.973 37.798 133.234 37.798C133.495 37.798 133.718 37.7249 133.867 37.5422Z" fill="#333333"/>
<path d="M138.341 35.4222V38.3463H137.67V37.9808C137.558 38.127 137.409 38.2001 137.26 38.2732C137.111 38.3463 136.925 38.3828 136.701 38.3828C136.291 38.3828 135.993 38.2732 135.769 38.0539C135.545 37.8346 135.434 37.5056 135.434 37.1036V35.4222H136.142V36.9939C136.142 37.2498 136.216 37.4691 136.328 37.5787C136.44 37.7249 136.626 37.7615 136.85 37.7615C137.111 37.7615 137.297 37.6884 137.447 37.5422C137.596 37.396 137.67 37.1767 137.67 36.8843V35.4222H138.341Z" fill="#333333"/>
<path d="M140.912 35.3857V36.0436C140.837 36.0436 140.8 36.0436 140.763 36.0436C140.502 36.0436 140.278 36.1167 140.129 36.2629C139.98 36.4091 139.906 36.6284 139.906 36.9208V38.3463H139.197V35.4222H139.868V35.8243C140.055 35.5319 140.427 35.3857 140.912 35.3857Z" fill="#333333"/>
<path d="M141.696 38.2732C141.472 38.2001 141.286 38.127 141.137 38.0539L141.398 37.5422C141.547 37.6153 141.696 37.6884 141.882 37.7615C142.069 37.798 142.255 37.8346 142.441 37.8346C142.851 37.8346 143.075 37.7249 143.075 37.5056C143.075 37.396 143.038 37.3229 142.926 37.2863C142.814 37.2498 142.665 37.2132 142.404 37.1766C142.143 37.1401 141.957 37.1035 141.808 37.067C141.659 37.0304 141.509 36.9208 141.398 36.8111C141.286 36.7015 141.211 36.5187 141.211 36.2994C141.211 36.007 141.323 35.7877 141.584 35.6415C141.808 35.4588 142.143 35.3857 142.553 35.3857C142.74 35.3857 142.963 35.4222 143.187 35.4588C143.373 35.4953 143.56 35.5684 143.672 35.6415L143.411 36.1532C143.15 36.007 142.889 35.9339 142.553 35.9339C142.33 35.9339 142.18 35.9705 142.069 36.007C141.957 36.0436 141.92 36.1532 141.92 36.2629C141.92 36.3725 141.994 36.4456 142.106 36.4822C142.218 36.5187 142.404 36.5553 142.628 36.6284C142.851 36.6649 143.075 36.7015 143.224 36.738C143.373 36.7746 143.522 36.8477 143.634 36.9939C143.746 37.1035 143.783 37.2863 143.783 37.4691C143.783 37.7615 143.672 37.9808 143.411 38.127C143.15 38.3097 142.851 38.3828 142.404 38.3828C142.143 38.3828 141.92 38.3463 141.696 38.2732Z" fill="#333333"/>
<path d="M147.1 37.1035H144.751C144.789 37.3229 144.9 37.5056 145.087 37.6153C145.273 37.7249 145.46 37.798 145.72 37.798C146.056 37.798 146.317 37.6884 146.541 37.4691L146.913 37.9077C146.764 38.0539 146.615 38.2001 146.391 38.2732C146.168 38.3463 145.944 38.3828 145.683 38.3828C145.348 38.3828 145.049 38.3097 144.826 38.2001C144.602 38.0904 144.378 37.9077 144.229 37.6518C144.08 37.396 144.043 37.1767 144.043 36.8842C144.043 36.5918 144.118 36.336 144.229 36.1167C144.378 35.8974 144.528 35.7146 144.789 35.5684C145.012 35.4588 145.273 35.3857 145.571 35.3857C145.87 35.3857 146.13 35.4588 146.354 35.5684C146.578 35.6781 146.764 35.8608 146.876 36.1167C146.988 36.336 147.062 36.5918 147.062 36.9208C147.1 36.9573 147.1 36.9939 147.1 37.1035ZM145.012 36.1167C144.863 36.2629 144.751 36.4091 144.714 36.6284H146.391C146.354 36.4091 146.28 36.2629 146.13 36.1167C145.981 35.9705 145.795 35.9339 145.571 35.9339C145.385 35.9339 145.199 36.007 145.012 36.1167Z" fill="#333333"/>
<path d="M147.734 34.2892H148.443V38.3463H147.734V34.2892Z" fill="#333333"/>
<path d="M150.046 35.276V35.4588H150.866V36.0071H150.083V38.3828H149.375V36.0071H148.891V35.4588H149.375V35.276C149.375 34.9471 149.45 34.7278 149.673 34.545C149.86 34.3623 150.121 34.2892 150.456 34.2892C150.717 34.2892 150.941 34.3257 151.09 34.4354L150.904 34.9471C150.792 34.874 150.643 34.8374 150.531 34.8374C150.195 34.8009 150.046 34.9471 150.046 35.276Z" fill="#333333"/>
<path d="M155.786 38.3829L155.301 37.9077C154.929 38.2001 154.481 38.3829 153.997 38.3829C153.736 38.3829 153.475 38.3463 153.251 38.2367C153.028 38.127 152.878 38.0174 152.729 37.8712C152.618 37.725 152.543 37.5422 152.543 37.3595C152.543 37.1402 152.618 36.9209 152.767 36.7381C152.916 36.5553 153.139 36.3726 153.475 36.1898C153.326 36.0436 153.214 35.8974 153.139 35.7512C153.065 35.605 153.028 35.4954 153.028 35.3492C153.028 35.0933 153.139 34.874 153.326 34.6913C153.549 34.5085 153.81 34.4354 154.146 34.4354C154.444 34.4354 154.705 34.5085 154.891 34.6547C155.078 34.8009 155.19 35.0202 155.19 35.2761C155.19 35.4588 155.115 35.6416 155.003 35.7878C154.891 35.934 154.668 36.0802 154.407 36.2629L155.264 37.0671C155.376 36.8843 155.413 36.665 155.488 36.4091L156.047 36.5919C155.972 36.9209 155.861 37.2133 155.712 37.4691L156.196 37.9443L155.786 38.3829ZM154.891 37.5422L153.848 36.5553C153.624 36.665 153.475 36.7747 153.363 36.9209C153.289 37.0305 153.214 37.1402 153.214 37.2864C153.214 37.4326 153.289 37.5788 153.438 37.6884C153.587 37.7981 153.773 37.8346 153.997 37.8346C154.332 37.8346 154.63 37.725 154.891 37.5422ZM153.773 35.0568C153.699 35.1299 153.624 35.2395 153.624 35.3492C153.624 35.4223 153.661 35.5319 153.699 35.605C153.736 35.6781 153.848 35.7878 153.997 35.934C154.22 35.8243 154.37 35.7147 154.481 35.605C154.556 35.5319 154.63 35.4223 154.63 35.3126C154.63 35.203 154.593 35.0933 154.519 35.0568C154.444 34.9837 154.332 34.9471 154.183 34.9471C153.997 34.9471 153.885 34.9837 153.773 35.0568Z" fill="#333333"/>
<path d="M159.029 35.0933H157.725V34.4719H161.042V35.0933H159.738V38.3097H158.992V35.0933H159.029Z" fill="#333333"/>
<path d="M163.129 35.3857V36.0436C163.054 36.0436 163.017 36.0436 162.98 36.0436C162.719 36.0436 162.495 36.1167 162.346 36.2629C162.197 36.4091 162.122 36.6284 162.122 36.9208V38.3463H161.414V35.4222H162.085V35.8243C162.271 35.5319 162.607 35.3857 163.129 35.3857Z" fill="#333333"/>
<path d="M165.776 35.6781C166 35.8974 166.112 36.1898 166.112 36.6284V38.3463H165.441V37.9808C165.366 38.0905 165.217 38.2001 165.068 38.2732C164.919 38.3463 164.733 38.3829 164.509 38.3829C164.285 38.3829 164.099 38.3463 163.913 38.2732C163.726 38.2001 163.614 38.0905 163.54 37.9443C163.465 37.7981 163.391 37.6519 163.391 37.5057C163.391 37.2498 163.502 37.0305 163.689 36.8843C163.875 36.7381 164.211 36.6284 164.621 36.6284H165.404V36.5919C165.404 36.3726 165.329 36.2264 165.217 36.1167C165.105 36.0071 164.919 35.934 164.658 35.934C164.472 35.934 164.323 35.9705 164.173 36.0071C164.024 36.0436 163.875 36.1167 163.763 36.2264L163.502 35.7147C163.652 35.605 163.838 35.4954 164.062 35.4588C164.285 35.4223 164.509 35.3492 164.77 35.3492C165.217 35.3857 165.553 35.4954 165.776 35.6781ZM165.143 37.7615C165.292 37.6884 165.366 37.5788 165.441 37.4326V37.1036H164.733C164.323 37.1036 164.136 37.2498 164.136 37.5057C164.136 37.6153 164.173 37.725 164.285 37.7981C164.397 37.8712 164.509 37.9077 164.695 37.9077C164.882 37.8712 165.031 37.8346 165.143 37.7615Z" fill="#333333"/>
<path d="M169.914 34.2892V38.3463H169.243V37.9808C169.132 38.127 168.983 38.2366 168.833 38.3097C168.647 38.3828 168.461 38.4194 168.274 38.4194C167.976 38.4194 167.715 38.3463 167.491 38.2366C167.268 38.127 167.081 37.9442 166.97 37.7249C166.858 37.5056 166.783 37.2498 166.783 36.9208C166.783 36.6284 166.858 36.3726 166.97 36.1533C167.119 35.934 167.268 35.7512 167.491 35.6415C167.715 35.5319 167.976 35.4588 168.274 35.4588C168.461 35.4588 168.647 35.4953 168.833 35.5684C168.983 35.6415 169.132 35.7512 169.243 35.8609V34.3623H169.914V34.2892ZM168.796 37.6884C168.945 37.6153 169.02 37.5056 169.132 37.3594C169.244 37.2132 169.243 37.067 169.243 36.8843C169.243 36.7015 169.206 36.5553 169.132 36.4091C169.057 36.2629 168.945 36.1533 168.796 36.0802C168.647 36.0071 168.498 35.9705 168.349 35.9705C168.2 35.9705 168.013 36.0071 167.902 36.0802C167.79 36.1533 167.678 36.2629 167.566 36.4091C167.454 36.5553 167.454 36.7015 167.454 36.8843C167.454 37.067 167.491 37.2132 167.566 37.3594C167.641 37.5056 167.752 37.6153 167.902 37.6884C168.051 37.7615 168.2 37.798 168.349 37.798C168.498 37.798 168.684 37.7615 168.796 37.6884Z" fill="#333333"/>
<path d="M173.606 37.1035H171.257C171.294 37.3229 171.406 37.5056 171.593 37.6153C171.779 37.7249 171.965 37.798 172.226 37.798C172.562 37.798 172.823 37.6884 173.046 37.4691L173.419 37.9077C173.27 38.0539 173.121 38.2001 172.897 38.2732C172.674 38.3463 172.45 38.3828 172.189 38.3828C171.854 38.3828 171.555 38.3097 171.332 38.2001C171.108 38.0904 170.884 37.9077 170.735 37.6518C170.586 37.396 170.549 37.1767 170.549 36.8842C170.549 36.5918 170.623 36.336 170.735 36.1167C170.884 35.8974 171.033 35.7146 171.294 35.5684C171.518 35.4588 171.779 35.3857 172.077 35.3857C172.375 35.3857 172.636 35.4588 172.86 35.5684C173.084 35.6781 173.27 35.8608 173.382 36.1167C173.494 36.336 173.568 36.5918 173.568 36.9208C173.606 36.9573 173.606 36.9939 173.606 37.1035ZM171.518 36.1167C171.369 36.2629 171.257 36.4091 171.22 36.6284H172.897C172.86 36.4091 172.785 36.2629 172.636 36.1167C172.487 35.9705 172.301 35.9339 172.077 35.9339C171.854 35.9339 171.667 36.007 171.518 36.1167Z" fill="#333333"/>
<path d="M177.48 38.1635C177.406 38.2366 177.294 38.2732 177.182 38.3097C177.07 38.3463 176.959 38.3463 176.809 38.3463C176.474 38.3463 176.213 38.2732 176.064 38.0904C175.878 37.9077 175.803 37.6884 175.803 37.3594V35.9339H175.318V35.3857H175.803V34.7278H176.511V35.3857H177.294V35.9339H176.511V37.3229C176.511 37.4691 176.549 37.5787 176.623 37.6518C176.698 37.7249 176.809 37.7615 176.921 37.7615C177.07 37.7615 177.22 37.7249 177.294 37.6518L177.48 38.1635Z" fill="#333333"/>
<path d="M180.613 35.7146C180.837 35.934 180.949 36.2629 180.949 36.665V38.3463H180.241V36.7746C180.241 36.5188 180.166 36.336 180.054 36.1898C179.942 36.0436 179.756 36.0071 179.532 36.0071C179.271 36.0071 179.085 36.0802 178.936 36.2264C178.787 36.3726 178.712 36.5919 178.712 36.8843V38.3463H178.004V34.2892H178.712V35.7512C178.824 35.6415 178.973 35.5319 179.122 35.4588C179.309 35.3857 179.495 35.3491 179.681 35.3491C180.091 35.3857 180.39 35.4953 180.613 35.7146Z" fill="#333333"/>
<path d="M183.931 35.6781C184.154 35.8974 184.266 36.1898 184.266 36.6284V38.3463H183.595V37.9808C183.521 38.0905 183.372 38.2001 183.222 38.2732C183.073 38.3463 182.887 38.3829 182.663 38.3829C182.44 38.3829 182.253 38.3463 182.067 38.2732C181.88 38.2001 181.769 38.0905 181.694 37.9443C181.619 37.7981 181.545 37.6519 181.545 37.5057C181.545 37.2498 181.657 37.0305 181.843 36.8843C182.03 36.7381 182.365 36.6284 182.775 36.6284H183.558V36.5919C183.558 36.3726 183.483 36.2264 183.371 36.1167C183.26 36.0071 183.073 35.934 182.812 35.934C182.626 35.934 182.477 35.9705 182.328 36.0071C182.179 36.0436 182.03 36.1167 181.918 36.2264L181.657 35.7147C181.806 35.605 181.992 35.4954 182.216 35.4588C182.44 35.4223 182.663 35.3492 182.924 35.3492C183.372 35.3857 183.707 35.4954 183.931 35.6781ZM183.297 37.7615C183.446 37.6884 183.521 37.5788 183.595 37.4326V37.1036H182.887C182.477 37.1036 182.29 37.2498 182.29 37.5057C182.29 37.6153 182.328 37.725 182.44 37.7981C182.551 37.8712 182.663 37.9077 182.85 37.9077C182.999 37.8712 183.185 37.8346 183.297 37.7615Z" fill="#333333"/>
<path d="M186.912 38.1635C186.838 38.2366 186.726 38.2732 186.614 38.3097C186.502 38.3463 186.39 38.3463 186.241 38.3463C185.906 38.3463 185.645 38.2732 185.496 38.0904C185.309 37.9077 185.235 37.6884 185.235 37.3594V35.9339H184.75V35.3857H185.235V34.7278H185.943V35.3857H186.726V35.9339H185.943V37.3229C185.943 37.4691 185.98 37.5787 186.055 37.6518C186.129 37.7249 186.241 37.7615 186.353 37.7615C186.502 37.7615 186.651 37.7249 186.726 37.6518L186.912 38.1635Z" fill="#333333"/>
<path d="M193.585 35.4222L192.467 38.3463H191.796L191.013 36.336L190.231 38.3463H189.56L188.479 35.4222H189.149L189.932 37.5787L190.752 35.4222H191.349L192.169 37.5787L192.989 35.4222H193.585Z" fill="#333333"/>
<path d="M196.083 35.6781C196.307 35.8974 196.419 36.1898 196.419 36.6284V38.3463H195.748V37.9808C195.673 38.0905 195.524 38.2001 195.375 38.2732C195.226 38.3463 195.039 38.3829 194.816 38.3829C194.592 38.3829 194.406 38.3463 194.219 38.2732C194.033 38.2001 193.921 38.0905 193.846 37.9443C193.772 37.7981 193.697 37.6519 193.697 37.5057C193.697 37.2498 193.809 37.0305 193.996 36.8843C194.182 36.7381 194.517 36.6284 194.927 36.6284H195.71V36.5919C195.71 36.3726 195.636 36.2264 195.524 36.1167C195.412 36.0071 195.226 35.934 194.965 35.934C194.778 35.934 194.629 35.9705 194.48 36.0071C194.331 36.0436 194.182 36.1167 194.07 36.2264L193.809 35.7147C193.958 35.605 194.145 35.4954 194.368 35.4588C194.592 35.4223 194.816 35.3492 195.077 35.3492C195.487 35.3857 195.822 35.4954 196.083 35.6781ZM195.449 37.7615C195.598 37.6884 195.673 37.5788 195.748 37.4326V37.1036H195.039C194.629 37.1036 194.443 37.2498 194.443 37.5057C194.443 37.6153 194.48 37.725 194.592 37.7981C194.704 37.8712 194.816 37.9077 195.002 37.9077C195.151 37.8712 195.3 37.8346 195.449 37.7615Z" fill="#333333"/>
<path d="M199.998 35.4222L198.581 38.6021C198.432 38.9311 198.283 39.1504 198.097 39.26C197.91 39.4062 197.686 39.4428 197.426 39.4428C197.276 39.4428 197.127 39.4062 196.978 39.3697C196.829 39.3331 196.717 39.26 196.605 39.1869L196.904 38.6752C196.978 38.7483 197.053 38.7849 197.127 38.8214C197.202 38.858 197.314 38.8945 197.388 38.8945C197.5 38.8945 197.612 38.858 197.686 38.7849C197.761 38.7118 197.836 38.6021 197.91 38.4559L197.947 38.3463L196.643 35.4222H197.388L198.32 37.5787L199.252 35.4222H199.998Z" fill="#333333"/>
<path d="M41.4272 26.7988C43.84 16.7783 37.5124 6.73699 27.2941 4.37086C17.0759 2.00474 6.83632 8.20984 4.42349 18.2303C2.01067 28.2509 8.33824 38.2922 18.5565 40.6583C28.7748 43.0245 39.0143 36.8194 41.4272 26.7988Z" fill="#4399EB"/>
<path d="M22.9293 5.11779C32.6959 5.11779 40.636 12.9041 40.636 22.4817C40.636 32.0593 32.6959 39.8457 22.9293 39.8457C13.1627 39.8457 5.22268 32.0959 5.22268 22.4817C5.22268 12.8676 13.1627 5.11779 22.9293 5.11779ZM22.9293 2.5589C11.7089 2.5589 2.61328 11.4785 2.61328 22.4817C2.61328 33.485 11.7089 42.4046 22.9293 42.4046C34.1497 42.4046 43.2454 33.485 43.2454 22.4817C43.2826 11.4785 34.187 2.5589 22.9293 2.5589Z" fill="white"/>
<path d="M29.3026 7.96912L25.0902 13.3428H27.2523V24.7116L18.6786 13.16H14.5781V31.4744H12.416L16.6283 36.8846L20.8406 31.4744H18.6786V19.8863L27.2523 31.6937H31.3528V13.3428H33.5149L29.3026 7.96912Z" fill="white"/>
</g>
<defs>
<clipPath id="clip0_1868_5410">
<rect width="200" height="45" fill="white"/>
</clipPath>
</defs>
</svg>
