<svg width="27" height="29" viewBox="0 0 27 29" fill="none" xmlns="http://www.w3.org/2000/svg">
<path d="M12.0417 24.9792C12.0417 24.4201 11.8533 23.8672 11.4766 23.3203C11.0998 22.7734 10.6806 22.2023 10.2188 21.6068C9.75694 21.0113 9.33767 20.3915 8.96094 19.7474C8.5842 19.1033 8.39583 18.4167 8.39583 17.6875C8.39583 16.2778 8.8941 15.0747 9.89062 14.0781C10.8872 13.0816 12.0903 12.5833 13.5 12.5833C14.9097 12.5833 16.1128 13.0816 17.1094 14.0781C18.1059 15.0747 18.6042 16.2778 18.6042 17.6875C18.6042 18.4167 18.4158 19.1033 18.0391 19.7474C17.6623 20.3915 17.2431 21.0113 16.7812 21.6068C16.3194 22.2023 15.9002 22.7734 15.5234 23.3203C15.1467 23.8672 14.9583 24.4201 14.9583 24.9792H12.0417ZM13.5 28.625C13.0868 28.625 12.7405 28.4852 12.4609 28.2057C12.1814 27.9262 12.0417 27.5799 12.0417 27.1667V26.4375H14.9583V27.1667C14.9583 27.5799 14.8186 27.9262 14.5391 28.2057C14.2596 28.4852 13.9132 28.625 13.5 28.625ZM22.25 24.25C22.0312 24.0313 21.9036 23.7517 21.8672 23.4115C21.8307 23.0712 21.9097 22.7674 22.1042 22.5C22.6146 21.6979 23.0096 20.829 23.2891 19.8932C23.5686 18.9575 23.7083 17.9792 23.7083 16.9583C23.7083 15.6215 23.4714 14.3637 22.9974 13.1849C22.5234 12.0061 21.8611 10.9549 21.0104 10.0313C20.7431 9.71528 20.6033 9.36892 20.5911 8.99219C20.579 8.61545 20.7188 8.28125 21.0104 7.98958C21.3021 7.69792 21.6545 7.55208 22.0677 7.55208C22.4809 7.55208 22.8212 7.69792 23.0885 7.98958C24.1823 9.15625 25.0451 10.5052 25.6771 12.0365C26.309 13.5677 26.625 15.2083 26.625 16.9583C26.625 18.2708 26.4427 19.5286 26.0781 20.7318C25.7135 21.9349 25.2031 23.0469 24.5469 24.0677C24.2795 24.4809 23.9149 24.6997 23.4531 24.724C22.9913 24.7483 22.5903 24.5903 22.25 24.25ZM2.45313 24.0677C1.79688 23.0469 1.28646 21.9349 0.921875 20.7318C0.557292 19.5286 0.375 18.2708 0.375 16.9583C0.375 13.3125 1.65104 10.2135 4.20312 7.66146C6.75521 5.10938 9.85417 3.83333 13.5 3.83333H13.7917L12.4792 2.52083C12.2118 2.25347 12.0781 1.91319 12.0781 1.5C12.0781 1.08681 12.2118 0.746528 12.4792 0.479167C12.7465 0.211806 13.0868 0.078125 13.5 0.078125C13.9132 0.078125 14.2535 0.211806 14.5208 0.479167L18.3125 4.27083C18.4583 4.41667 18.5616 4.57465 18.6224 4.74479C18.6832 4.91493 18.7135 5.09722 18.7135 5.29167C18.7135 5.48611 18.6832 5.6684 18.6224 5.83854C18.5616 6.00868 18.4583 6.16667 18.3125 6.3125L14.5208 10.1042C14.2292 10.3958 13.8889 10.5356 13.5 10.5234C13.1111 10.5113 12.7708 10.3594 12.4792 10.0677C12.1875 9.77604 12.0417 9.42969 12.0417 9.02865C12.0417 8.6276 12.1875 8.28125 12.4792 7.98958L13.7188 6.75H13.5C10.6806 6.75 8.27431 7.74653 6.28125 9.73958C4.28819 11.7326 3.29167 14.1389 3.29167 16.9583C3.29167 17.9792 3.43142 18.9575 3.71094 19.8932C3.99045 20.829 4.38542 21.6979 4.89583 22.5C5.09028 22.7674 5.16927 23.0712 5.13281 23.4115C5.09635 23.7517 4.96875 24.0313 4.75 24.25C4.40972 24.5903 4.00868 24.7483 3.54688 24.724C3.08507 24.6997 2.72049 24.4809 2.45313 24.0677Z" fill="#9678F2"/>
</svg>
