<svg width="27" height="27" viewBox="0 0 27 27" fill="none" xmlns="http://www.w3.org/2000/svg">
<path d="M3.29167 26.625C2.48958 26.625 1.80295 26.3394 1.23177 25.7682C0.66059 25.1971 0.375 24.5104 0.375 23.7083V3.29167C0.375 2.48958 0.66059 1.80295 1.23177 1.23177C1.80295 0.66059 2.48958 0.375 3.29167 0.375H18.1302C18.5191 0.375 18.8898 0.447917 19.2422 0.59375C19.5946 0.739583 19.9045 0.946181 20.1719 1.21354L25.7865 6.82813C26.0538 7.09549 26.2604 7.40538 26.4063 7.75781C26.5521 8.11024 26.625 8.4809 26.625 8.86979V23.7083C26.625 24.5104 26.3394 25.1971 25.7682 25.7682C25.1971 26.3394 24.5104 26.625 23.7083 26.625H3.29167ZM3.29167 23.7083H23.7083V9.125H19.3333C18.9201 9.125 18.5738 8.98524 18.2943 8.70573C18.0148 8.42622 17.875 8.07986 17.875 7.66667V3.29167H3.29167V23.7083ZM19.3333 20.7917C19.7465 20.7917 20.0929 20.6519 20.3724 20.3724C20.6519 20.0929 20.7917 19.7465 20.7917 19.3333C20.7917 18.9201 20.6519 18.5738 20.3724 18.2943C20.0929 18.0148 19.7465 17.875 19.3333 17.875H7.66667C7.25347 17.875 6.90712 18.0148 6.6276 18.2943C6.34809 18.5738 6.20833 18.9201 6.20833 19.3333C6.20833 19.7465 6.34809 20.0929 6.6276 20.3724C6.90712 20.6519 7.25347 20.7917 7.66667 20.7917H19.3333ZM12.0417 9.125C12.4549 9.125 12.8012 8.98524 13.0807 8.70573C13.3602 8.42622 13.5 8.07986 13.5 7.66667C13.5 7.25347 13.3602 6.90712 13.0807 6.6276C12.8012 6.34809 12.4549 6.20833 12.0417 6.20833H7.66667C7.25347 6.20833 6.90712 6.34809 6.6276 6.6276C6.34809 6.90712 6.20833 7.25347 6.20833 7.66667C6.20833 8.07986 6.34809 8.42622 6.6276 8.70573C6.90712 8.98524 7.25347 9.125 7.66667 9.125H12.0417ZM19.3333 14.9583C19.7465 14.9583 20.0929 14.8186 20.3724 14.5391C20.6519 14.2596 20.7917 13.9132 20.7917 13.5C20.7917 13.0868 20.6519 12.7405 20.3724 12.4609C20.0929 12.1814 19.7465 12.0417 19.3333 12.0417H7.66667C7.25347 12.0417 6.90712 12.1814 6.6276 12.4609C6.34809 12.7405 6.20833 13.0868 6.20833 13.5C6.20833 13.9132 6.34809 14.2596 6.6276 14.5391C6.90712 14.8186 7.25347 14.9583 7.66667 14.9583H19.3333Z" fill="#57DCFF"/>
</svg>
