<svg width="31" height="27" viewBox="0 0 31 27" fill="none" xmlns="http://www.w3.org/2000/svg">
<path d="M3.83268 26.625C3.0306 26.625 2.34397 26.3394 1.77279 25.7683C1.20161 25.1971 0.916016 24.5104 0.916016 23.7084V1.25002C0.916016 1.07988 0.988932 0.96443 1.13477 0.903666C1.2806 0.842902 1.41428 0.873284 1.53581 0.994812L3.35872 2.81773L5.25456 0.885437C5.40039 0.739604 5.57053 0.666687 5.76497 0.666687C5.95942 0.666687 6.12956 0.739604 6.27539 0.885437L8.20768 2.81773L10.14 0.885437C10.2858 0.739604 10.4559 0.666687 10.6504 0.666687C10.8448 0.666687 11.015 0.739604 11.1608 0.885437L13.0566 2.81773L14.9889 0.885437C15.1348 0.739604 15.3049 0.666687 15.4993 0.666687C15.6938 0.666687 15.8639 0.739604 16.0098 0.885437L17.9421 2.81773L19.8379 0.885437C19.9837 0.739604 20.1539 0.666687 20.3483 0.666687C20.5428 0.666687 20.7129 0.739604 20.8587 0.885437L22.791 2.81773L24.7233 0.885437C24.8691 0.739604 25.0393 0.666687 25.2337 0.666687C25.4282 0.666687 25.5983 0.739604 25.7441 0.885437L27.64 2.81773L29.4629 0.994812C29.5844 0.873284 29.7181 0.842902 29.8639 0.903666C30.0098 0.96443 30.0827 1.07988 30.0827 1.25002V23.7084C30.0827 24.5104 29.7971 25.1971 29.2259 25.7683C28.6547 26.3394 27.9681 26.625 27.166 26.625H3.83268ZM3.83268 23.7084H14.041V14.9584H3.83268V23.7084ZM16.9577 23.7084H27.166V20.7917H16.9577V23.7084ZM16.9577 17.875H27.166V14.9584H16.9577V17.875ZM3.83268 12.0417H27.166V7.66669H3.83268V12.0417Z" fill="#FF5952"/>
</svg>
