<svg width="24" height="25" viewBox="0 0 24 25" fill="none" xmlns="http://www.w3.org/2000/svg">
<mask id="mask0_1873_22722" style="mask-type:alpha" maskUnits="userSpaceOnUse" x="0" y="0" width="24" height="25">
<rect y="0.5" width="24" height="24" fill="#D9D9D9"/>
</mask>
<g mask="url(#mask0_1873_22722)">
<path d="M5.00038 19.5C4.71704 19.5 4.47954 19.4042 4.28788 19.2125C4.09621 19.0208 4.00038 18.7833 4.00038 18.5C4.00038 18.2167 4.09621 17.9792 4.28788 17.7875C4.47954 17.5958 4.71704 17.5 5.00038 17.5H6.00038V10.5C6.00038 9.11667 6.41704 7.8875 7.25038 6.8125C8.08371 5.7375 9.16704 5.03333 10.5004 4.7V4C10.5004 3.58333 10.6462 3.22917 10.9379 2.9375C11.2295 2.64583 11.5837 2.5 12.0004 2.5C12.417 2.5 12.7712 2.64583 13.0629 2.9375C13.3545 3.22917 13.5004 3.58333 13.5004 4V4.7C14.8337 5.03333 15.917 5.7375 16.7504 6.8125C17.5837 7.8875 18.0004 9.11667 18.0004 10.5V17.5H19.0004C19.2837 17.5 19.5212 17.5958 19.7129 17.7875C19.9045 17.9792 20.0004 18.2167 20.0004 18.5C20.0004 18.7833 19.9045 19.0208 19.7129 19.2125C19.5212 19.4042 19.2837 19.5 19.0004 19.5H5.00038ZM12.0004 22.5C11.4504 22.5 10.9795 22.3042 10.5879 21.9125C10.1962 21.5208 10.0004 21.05 10.0004 20.5H14.0004C14.0004 21.05 13.8045 21.5208 13.4129 21.9125C13.0212 22.3042 12.5504 22.5 12.0004 22.5ZM8.00038 17.5H16.0004V10.5C16.0004 9.4 15.6087 8.45833 14.8254 7.675C14.042 6.89167 13.1004 6.5 12.0004 6.5C10.9004 6.5 9.95871 6.89167 9.17538 7.675C8.39204 8.45833 8.00038 9.4 8.00038 10.5V17.5ZM3.00038 10.5C2.71704 10.5 2.47954 10.3917 2.28788 10.175C2.09621 9.95833 2.01704 9.70833 2.05038 9.425C2.18371 8.175 2.53371 7.0125 3.10038 5.9375C3.66704 4.8625 4.39204 3.925 5.27538 3.125C5.49204 2.94167 5.73788 2.85833 6.01288 2.875C6.28788 2.89167 6.50871 3.01667 6.67538 3.25C6.84204 3.48333 6.90871 3.73333 6.87538 4C6.84204 4.26667 6.71704 4.5 6.50038 4.7C5.85038 5.31667 5.31704 6.03333 4.90038 6.85C4.48371 7.66667 4.20871 8.55 4.07538 9.5C4.04204 9.78333 3.92538 10.0208 3.72538 10.2125C3.52538 10.4042 3.28371 10.5 3.00038 10.5ZM21.0004 10.5C20.717 10.5 20.4754 10.4042 20.2754 10.2125C20.0754 10.0208 19.9587 9.78333 19.9254 9.5C19.792 8.55 19.517 7.66667 19.1004 6.85C18.6837 6.03333 18.1504 5.31667 17.5004 4.7C17.2837 4.5 17.1587 4.26667 17.1254 4C17.092 3.73333 17.1587 3.48333 17.3254 3.25C17.492 3.01667 17.7129 2.89167 17.9879 2.875C18.2629 2.85833 18.5087 2.94167 18.7254 3.125C19.6087 3.925 20.3337 4.8625 20.9004 5.9375C21.467 7.0125 21.817 8.175 21.9504 9.425C21.9837 9.70833 21.9045 9.95833 21.7129 10.175C21.5212 10.3917 21.2837 10.5 21.0004 10.5Z" fill="#333333"/>
</g>
</svg>
