<svg width="24" height="31" viewBox="0 0 24 31" fill="none" xmlns="http://www.w3.org/2000/svg">
<path d="M3.25065 30.0833C2.44857 30.0833 1.76194 29.7977 1.19076 29.2265C0.619575 28.6553 0.333984 27.9687 0.333984 27.1666V3.83329C0.333984 3.03121 0.619575 2.34458 1.19076 1.7734C1.76194 1.20222 2.44857 0.916626 3.25065 0.916626H15.0267C15.4642 0.916626 15.8774 1.00777 16.2663 1.19006C16.6552 1.37236 16.9833 1.63364 17.2507 1.97392L22.9746 8.86454C23.1934 9.1319 23.3635 9.42357 23.485 9.73954C23.6066 10.0555 23.6673 10.3836 23.6673 10.7239V27.1666C23.6673 27.8229 23.3696 28.2725 22.7741 28.5156C22.1786 28.7586 21.65 28.6493 21.1882 28.1875L14.9173 21.9895C14.5041 22.2569 14.0545 22.4574 13.5684 22.5911C13.0822 22.7248 12.5597 22.7916 12.0007 22.7916C10.3965 22.7916 9.02322 22.2204 7.88086 21.0781C6.7385 19.9357 6.16732 18.5625 6.16732 16.9583C6.16732 15.3541 6.7385 13.9809 7.88086 12.8385C9.02322 11.6961 10.3965 11.125 12.0007 11.125C13.6048 11.125 14.9781 11.6961 16.1204 12.8385C17.2628 13.9809 17.834 15.3541 17.834 16.9583C17.834 17.5173 17.7671 18.0399 17.6335 18.526C17.4998 19.0121 17.2993 19.4618 17.0319 19.875L20.7507 23.6666V10.6875L14.9902 3.83329H3.25065V27.1666H15.3913C15.8774 27.1666 16.242 27.3185 16.485 27.6224C16.7281 27.9262 16.8496 28.2604 16.8496 28.625C16.8496 28.9895 16.7281 29.3237 16.485 29.6276C16.242 29.9314 15.8774 30.0833 15.3913 30.0833H3.25065ZM12.0007 19.875C12.8027 19.875 13.4894 19.5894 14.0605 19.0182C14.6317 18.447 14.9173 17.7604 14.9173 16.9583C14.9173 16.1562 14.6317 15.4696 14.0605 14.8984C13.4894 14.3272 12.8027 14.0416 12.0007 14.0416C11.1986 14.0416 10.5119 14.3272 9.94076 14.8984C9.36957 15.4696 9.08398 16.1562 9.08398 16.9583C9.08398 17.7604 9.36957 18.447 9.94076 19.0182C10.5119 19.5894 11.1986 19.875 12.0007 19.875Z" fill="#FFC145"/>
</svg>
