<svg width="29" height="27" viewBox="0 0 29 27" fill="none" xmlns="http://www.w3.org/2000/svg">
<path d="M1.01107 24.0729L8.77669 16.3073C9.33572 15.7482 10.0284 15.4687 10.8548 15.4687C11.6812 15.4687 12.3739 15.7482 12.9329 16.3073L16.6882 20.0625L26.0215 9.52602C26.2888 9.21005 26.6352 9.05206 27.0605 9.05206C27.4859 9.05206 27.8444 9.1979 28.1361 9.48956C28.4034 9.75692 28.5432 10.079 28.5553 10.4557C28.5675 10.8324 28.4399 11.1666 28.1725 11.4583L18.7298 22.1041C18.1708 22.7361 17.4781 23.0703 16.6517 23.1067C15.8253 23.1432 15.1083 22.8576 14.5007 22.25L10.8548 18.6041L3.19857 26.2604C2.8826 26.5764 2.51801 26.7344 2.10482 26.7344C1.69162 26.7344 1.32704 26.5764 1.01107 26.2604C0.695095 25.9444 0.537109 25.5798 0.537109 25.1666C0.537109 24.7535 0.695095 24.3889 1.01107 24.0729ZM1.01107 15.3229L8.77669 7.55727C9.33572 6.99824 10.0284 6.71873 10.8548 6.71873C11.6812 6.71873 12.3739 6.99824 12.9329 7.55727L16.6882 11.3125L26.0215 0.776021C26.2888 0.460049 26.6352 0.302063 27.0605 0.302063C27.4859 0.302063 27.8444 0.447896 28.1361 0.739563C28.4034 1.00692 28.5432 1.32897 28.5553 1.70571C28.5675 2.08244 28.4399 2.41665 28.1725 2.70831L18.7298 13.3541C18.1708 13.9861 17.4781 14.3203 16.6517 14.3567C15.8253 14.3932 15.1083 14.1076 14.5007 13.5L10.8548 9.85415L3.19857 17.5104C2.8826 17.8264 2.51801 17.9844 2.10482 17.9844C1.69162 17.9844 1.32704 17.8264 1.01107 17.5104C0.695095 17.1944 0.537109 16.8298 0.537109 16.4166C0.537109 16.0035 0.695095 15.6389 1.01107 15.3229Z" fill="#409FFE"/>
</svg>
