<svg width="31" height="28" viewBox="0 0 31 28" fill="none" xmlns="http://www.w3.org/2000/svg">
<path d="M7.77018 27.0625C7.50282 26.7951 7.36914 26.4549 7.36914 26.0417C7.36914 25.6285 7.50282 25.2882 7.77018 25.0208L14.7337 18.0208C15.2928 17.4618 15.9855 17.1823 16.8118 17.1823C17.6382 17.1823 18.3309 17.4618 18.89 18.0208L21.916 21.0469L28.4421 14.5208C28.7337 14.2292 29.074 14.0833 29.4629 14.0833C29.8518 14.0833 30.1921 14.2292 30.4837 14.5208C30.7754 14.8125 30.9212 15.1589 30.9212 15.5599C30.9212 15.9609 30.7754 16.3073 30.4837 16.599L23.9941 23.125C23.4351 23.684 22.7485 23.9635 21.9342 23.9635C21.12 23.9635 20.4334 23.684 19.8743 23.125L16.8118 20.0625L9.81185 27.0625C9.54449 27.3299 9.21029 27.4696 8.80924 27.4818C8.4082 27.4939 8.06185 27.3542 7.77018 27.0625ZM3.83268 26.625C3.0306 26.625 2.34397 26.3394 1.77279 25.7682C1.20161 25.197 0.916016 24.5104 0.916016 23.7083V3.29167C0.916016 2.48958 1.20161 1.80295 1.77279 1.23177C2.34397 0.66059 3.0306 0.375 3.83268 0.375H24.2493C25.0514 0.375 25.7381 0.66059 26.3092 1.23177C26.8804 1.80295 27.166 2.48958 27.166 3.29167V9.125C27.166 9.53819 27.0263 9.88455 26.7467 10.1641C26.4672 10.4436 26.1209 10.5833 25.7077 10.5833H3.83268V26.625ZM3.83268 7.66667H24.2493V3.29167H3.83268V7.66667Z" fill="#FB3E82"/>
</svg>
