<svg width="31" height="21" viewBox="0 0 31 21" fill="none" xmlns="http://www.w3.org/2000/svg">
<path d="M3.83268 20.7084C3.0306 20.7084 2.34397 20.4228 1.77279 19.8516C1.20161 19.2804 0.916016 18.5938 0.916016 17.7917V3.20835C0.916016 2.40627 1.20161 1.71964 1.77279 1.14846C2.34397 0.577277 3.0306 0.291687 3.83268 0.291687H27.166C27.9681 0.291687 28.6547 0.577277 29.2259 1.14846C29.7971 1.71964 30.0827 2.40627 30.0827 3.20835V17.7917C30.0827 18.5938 29.7971 19.2804 29.2259 19.8516C28.6547 20.4228 27.9681 20.7084 27.166 20.7084H3.83268ZM3.83268 17.7917H27.166V3.20835H3.83268V17.7917ZM23.5202 14.1459H20.9681C20.6521 14.1459 20.3908 14.2492 20.1842 14.4557C19.9776 14.6623 19.8743 14.9236 19.8743 15.2396C19.8743 15.5556 19.9776 15.8169 20.1842 16.0235C20.3908 16.2301 20.6521 16.3334 20.9681 16.3334H24.2493C24.6625 16.3334 25.0089 16.1936 25.2884 15.9141C25.5679 15.6346 25.7077 15.2882 25.7077 14.875V11.5938C25.7077 11.2778 25.6044 11.0165 25.3978 10.8099C25.1912 10.6033 24.9299 10.5 24.6139 10.5C24.298 10.5 24.0367 10.6033 23.8301 10.8099C23.6235 11.0165 23.5202 11.2778 23.5202 11.5938V14.1459ZM15.4993 14.875C16.7146 14.875 17.7476 14.4497 18.5983 13.599C19.449 12.7483 19.8743 11.7153 19.8743 10.5C19.8743 9.28474 19.449 8.25176 18.5983 7.40106C17.7476 6.55037 16.7146 6.12502 15.4993 6.12502C14.2841 6.12502 13.2511 6.55037 12.4004 7.40106C11.5497 8.25176 11.1243 9.28474 11.1243 10.5C11.1243 11.7153 11.5497 12.7483 12.4004 13.599C13.2511 14.4497 14.2841 14.875 15.4993 14.875ZM7.47852 6.85419H10.0306C10.3466 6.85419 10.6079 6.75089 10.8145 6.54429C11.021 6.33769 11.1243 6.07641 11.1243 5.76044C11.1243 5.44446 11.021 5.18318 10.8145 4.97658C10.6079 4.76999 10.3466 4.66669 10.0306 4.66669H6.74935C6.33615 4.66669 5.9898 4.80644 5.71029 5.08596C5.43077 5.36547 5.29102 5.71183 5.29102 6.12502V9.40627C5.29102 9.72224 5.39431 9.98353 5.60091 10.1901C5.80751 10.3967 6.06879 10.5 6.38477 10.5C6.70074 10.5 6.96202 10.3967 7.16862 10.1901C7.37522 9.98353 7.47852 9.72224 7.47852 9.40627V6.85419Z" fill="#409FFE"/>
</svg>
