<svg width="27" height="25" viewBox="0 0 27 25" fill="none" xmlns="http://www.w3.org/2000/svg">
<path d="M2.5625 24.1666C1.95486 24.1666 1.43837 23.954 1.01302 23.5286C0.587674 23.1033 0.375 22.5868 0.375 21.9791V16.1458C0.375 15.5382 0.587674 15.0217 1.01302 14.5963C1.43837 14.171 1.95486 13.9583 2.5625 13.9583C3.17014 13.9583 3.68663 14.171 4.11198 14.5963C4.53733 15.0217 4.75 15.5382 4.75 16.1458V21.9791C4.75 22.5868 4.53733 23.1033 4.11198 23.5286C3.68663 23.954 3.17014 24.1666 2.5625 24.1666ZM8.39583 15.4166C7.78819 15.4166 7.2717 15.204 6.84635 14.7786C6.42101 14.3533 6.20833 13.8368 6.20833 13.2291V11.7708C6.20833 11.1632 6.42101 10.6467 6.84635 10.2213C7.2717 9.79599 7.78819 9.58331 8.39583 9.58331C9.00347 9.58331 9.51997 9.79599 9.94531 10.2213C10.3707 10.6467 10.5833 11.1632 10.5833 11.7708V13.2291C10.5833 13.8368 10.3707 14.3533 9.94531 14.7786C9.51997 15.204 9.00347 15.4166 8.39583 15.4166ZM12.7708 8.12498C12.1632 8.12498 11.6467 7.91231 11.2214 7.48696C10.796 7.06161 10.5833 6.54512 10.5833 5.93748V4.47915C10.5833 3.87151 10.796 3.35501 11.2214 2.92967C11.6467 2.50432 12.1632 2.29165 12.7708 2.29165C13.3785 2.29165 13.895 2.50432 14.3203 2.92967C14.7457 3.35501 14.9583 3.87151 14.9583 4.47915V5.93748C14.9583 6.54512 14.7457 7.06161 14.3203 7.48696C13.895 7.91231 13.3785 8.12498 12.7708 8.12498ZM18.6042 5.20831C17.9965 5.20831 17.48 4.99564 17.0547 4.57029C16.6293 4.14494 16.4167 3.62845 16.4167 3.02081C16.4167 2.41317 16.6293 1.89668 17.0547 1.47133C17.48 1.04599 17.9965 0.833313 18.6042 0.833313C19.2118 0.833313 19.7283 1.04599 20.1536 1.47133C20.579 1.89668 20.7917 2.41317 20.7917 3.02081C20.7917 3.62845 20.579 4.14494 20.1536 4.57029C19.7283 4.99564 19.2118 5.20831 18.6042 5.20831ZM24.4375 24.1666C23.8299 24.1666 23.3134 23.954 22.888 23.5286C22.4627 23.1033 22.25 22.5868 22.25 21.9791V3.02081C22.25 2.41317 22.4627 1.89668 22.888 1.47133C23.3134 1.04599 23.8299 0.833313 24.4375 0.833313C25.0451 0.833313 25.5616 1.04599 25.987 1.47133C26.4123 1.89668 26.625 2.41317 26.625 3.02081V21.9791C26.625 22.5868 26.4123 23.1033 25.987 23.5286C25.5616 23.954 25.0451 24.1666 24.4375 24.1666Z" fill="#62E525"/>
</svg>
