<svg width="25" height="25" viewBox="0 0 25 25" fill="none" xmlns="http://www.w3.org/2000/svg">
<path d="M20.625 20H4.375C4.03125 20 3.75 20.2812 3.75 20.625V21.875C3.75 22.2188 4.03125 22.5 4.375 22.5H20.625C20.9688 22.5 21.25 22.2188 21.25 21.875V20.625C21.25 20.2812 20.9688 20 20.625 20ZM23.125 7.5C22.0898 7.5 21.25 8.33984 21.25 9.375C21.25 9.65234 21.3125 9.91016 21.4219 10.1484L18.5938 11.8438C17.9922 12.2031 17.2148 12 16.8672 11.3906L13.6836 5.82031C14.1016 5.47656 14.375 4.96094 14.375 4.375C14.375 3.33984 13.5352 2.5 12.5 2.5C11.4648 2.5 10.625 3.33984 10.625 4.375C10.625 4.96094 10.8984 5.47656 11.3164 5.82031L8.13281 11.3906C7.78516 12 7.00391 12.2031 6.40625 11.8438L3.58203 10.1484C3.6875 9.91406 3.75391 9.65234 3.75391 9.375C3.75391 8.33984 2.91406 7.5 1.87891 7.5C0.84375 7.5 0 8.33984 0 9.375C0 10.4102 0.839844 11.25 1.875 11.25C1.97656 11.25 2.07812 11.2344 2.17578 11.2188L5 18.75H20L22.8242 11.2188C22.9219 11.2344 23.0234 11.25 23.125 11.25C24.1602 11.25 25 10.4102 25 9.375C25 8.33984 24.1602 7.5 23.125 7.5Z" fill="#FFC107"/>
</svg>
